<?xml version="1.0" encoding="UTF-8"?>
<svg id="Ebene_2" data-name="Ebene 2" xmlns="http://www.w3.org/2000/svg" viewBox="0 0 8.27 8.2">
  <defs>
    <style>
      .cls-1 {
        fill: #4a4a4a;
      }
    </style>
  </defs>
  <g id="Checked">
    <g id="Checkmark">
      <path class="cls-1" d="M0,4.4c0-.44.3-.85.74-1,.46-.16.96,0,1.24.38.22.3.43.6.64.91l.28.4,1.03-1.18L6.82.34c.25-.3.58-.41.91-.3.24.08.42.26.49.49.08.24.04.5-.11.72-.16.23-.31.45-.47.68l-.2.29-2.23,3.19-1.65,2.36c-.16.23-.38.38-.62.41-.21.03-.43-.02-.61-.16-.08-.06-.16-.14-.22-.24l-1.54-2.2-.34-.48C.12,4.96,0,4.74,0,4.4"/>
    </g>
  </g>
</svg>