<?xml version="1.0" encoding="UTF-8"?><svg id="Ebene_1" xmlns="http://www.w3.org/2000/svg" viewBox="0 0 3519.33 645.25"><path d="m1151.58,29.39c19.88,9,40.56,16.6,59.41,27.38,18.6,10.64,35.47,24.31,52.82,37.04,5.03,3.69,8.86,8.97,13.63,13.07,12.98,11.16,28.06,20.52,38.74,33.51,11.48,13.96,18.7,31.37,28.17,47.03,5.32,8.79,11.44,17.09,17.19,25.63.58.86,1.39,1.74,1.52,2.69,2.26,16.44,4.5,32.89,6.61,49.36,1.15,8.96,2.7,17.95,2.83,26.94.1,6.73-2.66,13.54-2.31,20.22.12,2.25,5.82,5.92,9.04,5.99,10.08.22,14.11,7.13,15.2,14.55,3.04,20.71,6.07,41.61,6.31,62.47.13,11.41-4.4,23.27-8.58,34.26-6.71,17.63-13.45,35.55-23.01,51.68-4.98,8.41-16.11,13.12-24.26,19.75-2.76,2.25-5.19,5.05-7.27,7.95-17.57,24.51-36.03,47.88-63.94,61.96-10.51,5.3-19.79,12.99-29.86,19.22-3.57,2.21-7.69,4.19-11.78,4.8-17.77,2.64-35.56,5.32-53.45,6.88-19.54,1.71-39.28,3.72-58.74,2.52-7.96-.49-17.31-7.73-22.2-14.61-2.03-2.86,5.35-13.21,9.59-19.37,2.14-3.11,6.83-4.47,10.38-6.59,12.42-7.43,25.17-14.36,37.16-22.42,11.15-7.5,21.67-15.99,32.14-24.44,7.82-6.31,15.29-13.07,22.61-19.95,9.49-8.93,18.5-18.36,28.06-27.2,4.9-4.53,11.48-7.48,15.68-12.5,6.69-7.99,11.47-17.58,18.18-25.56,3.65-4.35,9.24-7.77,14.63-9.76,4.99-1.84,11.83.49,16.22-1.95,17.24-9.58,16.97-13.45,2.54-32.4-3.29-4.33-4.65-10.45-5.87-15.97-4.97-22.5-7.87-45.61-14.75-67.49-6.41-20.39-16.16-39.88-25.78-59.09-11.09-22.14-23.02-43.92-35.84-65.1-5.73-9.46-14.62-16.99-21.89-25.54-10.91-12.84-20.45-27.14-32.77-38.43-17.6-16.12-37.62-29.58-55.61-45.32-4.69-4.11-9.43-14.13-7.48-18.46,2.96-6.6,11-12.43,18.19-15.22,8.23-3.19,17.9-2.68,26.94-3.78.53-1.24,1.06-2.49,1.59-3.73Z"/><path d="m2415.69,627.98c-18.92-3.5-38.17-5.82-56.64-10.94-10.93-3.03-20.57-10.58-30.91-15.88-4.22-2.16-9.1-3.19-13.04-5.72-6.62-4.25-12.87-9.11-19.02-14.03-8.19-6.55-15.89-13.73-24.26-20.03-9.01-6.78-19.31-12.02-27.67-19.47-8.58-7.65-18.07-16.02-22.55-26.11-6.73-15.18-17.9-23.13-30.7-32.3-9.13-6.54-12.8-21.23-17.84-32.75-5.41-12.35-11.42-24.91-13.78-37.98-2.7-14.97-1.07-30.66-2.44-45.94-1.5-16.69,3.61-31.25,14.89-42.49,4.06-4.05,13.57-2.45,20.47-4,2.17-.49,5.76-3.11,5.58-4.31-2.63-18.04-5.8-36-8.78-53.99-.28-1.71-.23-3.48-.23-5.22-.01-5.9-.47-11.86.14-17.7,1.61-15.36,1.25-31.53,6.29-45.75,4.76-13.43,15.16-24.94,23.51-37,9.89-14.28,18.99-29.41,30.7-42.07,18.17-19.64,37.24-38.74,57.88-55.7,13.88-11.4,30.54-20.02,47.06-27.42,12.46-5.58,26.53-8.03,40.14-10.44,12.14-2.15,24.65-3.16,36.97-3.01,5.52.07,13.82,2.72,15.94,6.77,5.78,11.02-3.57,17.87-10.66,24.58-16.42,15.53-33.93,30.05-49.12,46.69-10.42,11.4-17.59,25.74-26.38,38.65-15.95,23.47-31.99,46.88-48.05,70.28-11.66,16.99-24.87,33.13-34.63,51.14-7.84,14.47-12.01,31.04-16.76,46.99-1.17,3.93,2.78,9.11,2.61,13.64-.53,13.9-2.23,27.76-2.77,41.66-.15,3.89,2.53,7.8,3.24,11.82,3.2,18.12-8.04,28.85-20.13,39.29-1.08.93-.95,5.55.14,6.34,11.93,8.62,25.01,15.86,35.98,25.51,5.86,5.15,7.6,14.71,12.35,21.46,4.89,6.95,11.28,12.83,16.82,19.35,5,5.88,9.47,12.22,14.63,17.95,6.11,6.78,12.6,13.25,19.13,19.63,4.98,4.86,10.15,9.54,15.47,14.02,11.66,9.82,22.51,21.08,35.48,28.75,14.42,8.53,30.97,13.4,46.29,20.53,6.64,3.09,17.49,7.52,17.77,11.88.78,12.51-4.84,23.68-19.78,26.15-7.44,1.23-14.83,2.76-22.24,4.16-.36,1-.73,1.99-1.09,2.99Z"/><path d="m3000.63,14.9c1.21,2.01,4.88,6.73,7.04,12.06,2.09,5.17,2.53,11,3.94,16.48.23.88,1.82,2.11,2.57,1.98,1.06-.18,1.9-1.51,2.87-2.31,3.81-3.18,7.64-6.35,11.46-9.52,2.68,5.1,10.92,3.93,9.17,15.41-3.48,22.78-1.07,46.47-.93,69.78,0,.9,2.37,2.69,2.59,2.54,2.16-1.48,4.85-2.89,5.98-5.05,7.37-14.11,15.13-28.09,21.27-42.74,4.68-11.16,6.48-23.49,10.81-34.83,3.03-7.94,6.97-16.35,12.93-21.98,2.41-2.27,14.28.4,16.67,4.13,6.41,10.01,11.05,21.5,14.52,32.97,6.83,22.59,12.52,45.53,18.3,68.42.59,2.33-2.5,5.49-2.09,7.97,2.57,15.44,5.78,30.78,8.48,46.21.78,4.43.73,9.03.81,13.56.18,10.73,2.57,22.23-.59,31.91-1.95,5.98-13.22,13.7-18.94,12.72-14.11-2.41-15.5,11.37-24.01,14.44-6.81,2.46-15.14.69-21.98,3.11-5.09,1.8-9.59,6.74-13.1,11.26-6.4,8.24-10.4,19.09-18.26,25.15-4.69,3.61-17.56,3.25-22-.68-12.46-11.05-23.06-24.41-33.25-37.73-9.68-12.65-16.61-27.57-27.12-39.39-13.36-15.02-22.39-31.14-19.86-51.18,1.6-12.65,6.89-24.81,10.16-37.28,2.1-8.01,3.44-16.21,5.29-24.28,5.08-22.1,11.4-44,14.92-66.33,1.78-11.28,3.63-18.68,22.36-16.79Z"/><path d="m379,180.2c5.73-25,10.42-47.56,16.15-69.86,4.81-18.68,9.9-37.4,16.7-55.42,3.86-10.23,11.11-19.28,17.37-28.49,5.4-7.95,10.34-17.09,17.83-22.44,5.12-3.65,14.28-2.04,21.6-1.83,1.08.03,2.81,5.31,2.89,8.2,1.24,40.92,2,81.87,3.6,122.77.21,5.37,4.08,10.8,7.08,15.7.58.94,6.94.22,7.36-.92,2.86-7.84,5.43-15.89,6.98-24.09,2.36-12.5,4.38-25.12,5.51-37.77,1.03-11.5,2.06-23.31.56-34.65-1.68-12.74,5.28-17.46,14.82-20.85,7.7-2.74,15.64-5,23.64-6.69,12.09-2.56,23.06,7.2,25.61,20,4.49,22.57,10.51,44.83,15.07,67.38,1.53,7.57.29,15.67.77,23.49.79,12.88,2,25.73,2.95,38.6,1.37,18.69-13.49,26.48-24.67,36.89-8.96,8.34-18.15,16.65-25.81,26.12-7.15,8.84-12.78,19-18.42,28.95-3.94,6.93-6.3,14.76-10.31,21.64-2.03,3.48-6.02,8.01-9.33,8.19-20.11,1.07-30.4-10.01-35.83-29.51-2.53-9.08-8.76-21.82-22.7-20.41-15.32,1.55-21.19-10.33-30.14-18.27-5.04-4.46-12.98-6.91-15.87-12.28-5.86-10.88-9.17-23.12-13.41-34.46Z"/><path d="m3167.49,589.44c-1.51,15.67-2.33,31.47-5.27,46.87-.45,2.35-13.97,5.75-15.8,3.69-8.33-9.44-14.52-20.73-21.72-31.19-4.44-6.45-11.14-11.97-13.62-19.03-5.98-17.01-10.18-34.64-14.9-52.08-5.1-18.82-10.11-37.67-14.9-56.58-3.21-12.67-6.91-25.08.95-38.01,4.78-7.87,6.59-17.48,10.52-25.95,4.36-9.39,21.81-15.02,31.05-10.61,9.45,4.52,16.71,7.93,24.33-5.29,6.02-10.46,17.76-17.97,27.84-25.65,6.01-4.58,26.89,8.17,31.23,17.1,6.05,12.44,12.45,24.81,20.07,36.31,1.57,2.38,9.29.15,13.94,1.15,7.64,1.64,16.75,2.2,22.25,6.78,10.08,8.39,13.97,23.49,29.92,26.26,2.29.4,4.65,9.41,4.34,14.27-1.16,17.86-3.22,35.68-5.36,53.46-1.78,14.83-3.26,29.79-6.48,44.34-4.27,19.33-9.91,38.38-15.59,57.36-.53,1.75-7.48,3.83-8.35,2.89-9.3-10.04-18.92-20.02-26.53-31.31-6.72-9.96-11.62-21.32-16.2-32.51-4.8-11.74-7.45-24.39-12.55-35.98-5.53-12.56-12.7-24.41-19.45-36.4-.63-1.12-4.39-1.98-5.01-1.33-2.51,2.61-5.68,5.62-6.24,8.89-4.67,27.24-8.82,54.56-13.13,81.86,1.56.23,3.12.45,4.68.68Z"/><path d="m235.66,492.98c-1.49-12.16-4.73-24.44-3.86-36.43.58-7.95,6.15-16.11,11.11-23,4.56-6.32,10.62-12.23,17.3-16.14,5.11-2.99,13.85-5.51,18.11-3.13,11.26,6.29,17.36,4.35,21.85-7.2,6.42-16.55,12.41-33.35,20.19-49.26,2.73-5.59,9.66-11.39,15.61-12.65,9.22-1.95,17.53.93,22.72,11.78,4.82,10.07,13.17,18.58,20.67,27.16,1.56,1.78,6.58,1.94,9.38,1,10.67-3.58,20.32-13.39,32.64-4.45,2.05,1.48,4.95,3.12,5.46,5.18,3.64,14.8,4.16,31.02,10.71,44.3,8.57,17.39-8.78,26.03-9.04,39.71-.05,2.72-.62,5.45-1.15,8.13-5.09,26.05-8.72,52.51-15.89,77.97-4.39,15.59-14.36,29.57-21.5,44.43-2.01,4.19-1.66,10-4.5,13.22-9.36,10.64-17.1,9.21-22.14-3.57-3.35-8.49-7.31-17.07-8.53-25.95-1.09-7.95,3.27-16.81,1.6-24.48-4.32-19.71-10.12-39.17-16.59-58.3-1.43-4.22-7.82-7.25-12.55-9.54-1.2-.58-7.04,3.89-6.95,5.87.83,17.93-10.93,31-16.6,46.38-4.54,12.31-6.2,25.68-9.15,38.58-2.36,10.3-3.54,21.11-7.68,30.63-1.69,3.9-11.37,8.3-14.63,6.73-6.32-3.05-12.74-9.32-15.4-15.78-6.17-15.01-10.19-30.91-14.93-46.49-1.74-5.73-3.73-11.5-4.42-17.4-1.83-15.64-3-31.35-4.44-47.03.86-.09,1.71-.19,2.57-.28Z"/><path d="m3279.47,89.67c-2.07,16.18-5.53,30.53-5.31,44.83.26,17.4,4.63,34.7,5.39,52.13,1.01,23.1-20.92,36.62-43.22,31.08-11.4-2.83-25.1-.21-36.87,3.11-14.33,4.04-23.44-.66-24.27-15.78-.93-16.89-1.63-33.81-3.32-50.62-1.36-13.58-6.06-27.11-5.51-40.5.45-11.07,6.63-21.85,9.84-32.88,2.17-7.46,2.1-15.97,5.72-22.52,4.6-8.31,11.88-15.17,18.36-22.34.19-.21,5.59,2.69,6.45,4.95,3.56,9.34,8.79,8.96,17.13,5.91,3.52-1.29,9.1,3.93,14,5.2,2.94.76,8.7.48,9.21-.86,3.57-9.35,7.57-12.46,13.09-1.81,6.85,13.24,12.98,26.86,19.32,40.11Z"/><path d="m3428.4,477.16c0,23.33,1.1,46.72-.38,69.95-1.02,15.9-4.77,31.82-9.12,47.21-1.52,5.36-8.5,9.18-12.98,13.7-4.17-6.81-10.22-13.14-12.14-20.53-5.33-20.54-8.66-41.6-13.53-62.28-.76-3.23-5.4-5.54-8.25-8.28-3.26,5.02-7.86,9.64-9.5,15.14-3.16,10.6-4.83,21.66-6.78,32.6-1.61,8.96-.12,19.88-4.85,26.47-4.28,5.97-14.95,8.98-23.12,9.71-2.91.26-9.48-9.88-9.75-15.5-1.9-39.77-3.16-79.59-3.29-119.4-.04-10.83,4.12-21.22,17.31-25.45,6.97-2.23,13.75-7.4,18.76-12.93,8.7-9.59,18.07-7.46,24.34-.18,9.6,11.15,21.94,14.71,34.4,20.4,10.33,4.72,17.08,17.24,25.41,26.3-2.17,1.02-4.35,2.04-6.52,3.06Z"/><path d="m738.71,109.64c-1.48,12.32-3.45,24.95-4.35,37.65-.52,7.38,3.79,17.07.42,21.87-6.52,9.29-17.82,15.08-25.44,23.79-5.74,6.57-9.17,15.28-13.04,23.32-5.66,11.77-10.2,24.11-16.54,35.48-1.79,3.22-8.33,5.59-12.38,5.2-3.41-.33-7.9-4.66-9.28-8.23-7.02-18.23-13.09-36.83-19.83-55.18-.59-1.61-3.48-2.86-5.54-3.37-20.18-5.1-19.06-21.77-19.97-37-1.12-18.63-3.22-37.42-1.82-55.9,1.22-16.18,6.36-32.14,10.55-47.98.98-3.69,5.15-6.54,7.85-9.78,4.35,5.25,9.91,9.93,12.75,15.9,4.25,8.91,6.51,18.76,9.76,28.15,5.3,15.29,10.4,30.67,16.36,45.71,1.32,3.31,5.91,5.33,8.99,7.95,3.04-4.38,6.86-8.42,8.97-13.21,7.34-16.64,14.02-33.57,21.1-50.32,2.67-6.31,4.15-14.54,8.98-18.22,10.83-8.25,15.74,3.8,17.21,9.94,3.38,14.14,3.64,29.01,5.23,44.23Z"/><path d="m2803.82,162.47c1.49-10.35,3.66-20.67,4.24-31.08.36-6.5-2.39-13.12-2.43-19.69-.05-7.06,1.77-14.11,2.18-21.2.52-8.88-.08-17.85.89-26.66.33-3.02,3.85-7.9,6.09-8,4.04-.18,9.94,1.41,11.98,4.38,5.54,8.05,10.19,16.92,13.82,26.01,3.82,9.56,5.91,19.81,9.04,29.66,2.27,7.15,4.76,14.25,7.69,21.15.67,1.59,4.85,3.49,5.22,3.11,2.27-2.33,4.35-5.08,5.68-8.05,7.31-16.28,14.75-32.52,21.39-49.08,3.29-8.2,4.15-17.4,7.69-25.46,1.63-3.73,7.14-8.16,10.7-8,3.98.17,10.78,4.9,11.1,8.15,1.96,19.99,3.04,40.13,3.2,60.23.11,13.14-2.15,26.29-2.64,39.46-.17,4.44,2.27,8.92,2.75,13.46,1.97,18.37-13.67,23.67-24.24,33.18-5.87,5.29-10.43,12.83-13.5,20.22-3.27,7.86-2.61,17.57-6.66,24.79-1.76,3.15-14.1,4.91-16.28,2.49-8.35-9.26-14.93-20.24-21.4-31.04-5.99-9.99-9.72-20.89-23.74-24.05-4.74-1.07-8.88-9.94-10.96-16.04-1.82-5.34-.38-11.8-.38-17.76-.47-.06-.95-.13-1.42-.19Z"/><path d="m352.38,110.45c-2.56,9.01-6.26,17.43-7.12,26.13-1.18,11.9.25,24.03-.29,36.02-.48,10.68,1.55,24.27-4.12,31.25-7.96,9.8-16.53,23.69-32.51,22.56-4.85-.34-9.96-5.5-13.81-9.54-6.94-7.28-12.65-14.84-23.04-4.02-3.2,3.33-10.37,6.76-13.61,5.34-6.59-2.89-12.91-8.18-17.26-14.03-13.77-18.51-7.31-40.51-5.41-60.01,2.54-26.09.54-54.04,17.04-77.68,5.82-8.33,8.89-18.54,13.97-27.46,1.39-2.44,6.23-5.22,8.24-4.47,3.06,1.13,6.3,4.85,7.19,8.09,1.74,6.35,1.74,13.15,2.9,19.68.17.93,3.02,2.26,4.15,1.91,1.11-.35,1.31-2.96,2.45-3.98,4.31-3.9,8.57-7.96,13.39-11.15,2.93-1.93,7.24-1.75,10.22-3.64,3.59-2.28,6.59-8.42,9.54-8.23,10.59.69,16.03,8.47,17.46,18.31,1.7,11.73,1.73,23.71,3.66,35.39,1.11,6.7,4.55,13.01,6.96,19.54Z"/><path d="m207.52,591.68c-22.37.41-17.33-17.42-20.25-27.02-5.75-18.92-8.89-38.62-13.53-57.9-.53-2.19-3.77-3.73-5.75-5.57-1.26,1.64-3.14,3.09-3.67,4.93-3.13,10.91-5.94,21.92-8.87,32.88-2.89,10.81-5.87,21.59-8.64,32.43-.64,2.48.06,5.44-.95,7.67-3.4,7.47-5.51,17.2-11.43,21.45-8.85,6.36-13.73-4.02-16.49-10.2-4.48-10.07-7.56-20.97-9.71-31.82-2.99-15.16-5.77-30.56-6.34-45.94-.37-9.79,4.03-19.68,5.13-29.65.72-6.56-1.61-13.46-.81-19.99.92-7.52,1.7-16.7,6.29-21.74,6.21-6.83,15.7-13.85,24.33-14.62,13.92-1.23,14.76-10,20.14-18.86,2.95-4.85,17.52-4.36,26.42-3.16,4.13.56,6.75,9.08,10.93,13.1,6.95,6.69,14.05,13.51,22.1,18.69,7.35,4.73,9.52,8.81,5.89,17.32-1.57,3.69,2.42,9.41,2.58,14.24.43,12.97-.22,25.97.28,38.93.33,8.52,3.35,17.12,2.59,25.44-1.16,12.64-4.76,25.05-6.91,37.63-.68,3.98,1.6,9.36-.34,12.01-3.05,4.17-8.53,6.57-12.97,9.72Z"/><path d="m3017.11,546.84c0-2.28.3-4.61-.07-6.82-.58-3.48-1.62-6.88-2.47-10.31-2.22,3.57-6.01,6.99-6.36,10.74-.93,9.95-.09,20.04-.6,30.05-.15,2.89-1.82,6.48-4.01,8.19-1.2.93-5.51-.73-7.46-2.37-14.45-12.11-21.03-28.05-23.57-46.52-2.1-15.26-8.41-30.27-8.43-45.39-.01-10.71,6.82-21.69,11.64-32.06,3.33-7.18,8.06-13.83,12.85-20.21,7.28-9.69,14.9-19.18,23.36-27.78.52-.53,11.74,6.36,14.35,11.6,5.19,10.42-.77,27.15,18.75,29.19,2.73.29,4.73,7.51,7.09,11.51,3.49,5.95,6.46,12.29,10.6,17.74,8.1,10.68,6.27,20.99,1.4,32.31-2.3,5.35-1.22,12.05-2.64,17.9-4.13,17.06-7.99,34.27-13.73,50.81-1.29,3.72-10.17,7.29-14.95,6.61-4.51-.64-9.95-6.24-11.87-10.93-3.05-7.44-3.5-15.94-5.06-24,.4-.09.8-.17,1.2-.26Z"/><path d="m801.26,94.32c4.14,13.95,8.13,27.94,12.6,41.78.59,1.82,3.48,3.12,5.59,4.03.41.18,2.56-2.41,3.11-3.99,6.36-18.54,11.81-37.45,19.27-55.53,2.22-5.38,9.95-8.5,15.16-12.66,4.37,6.14,11.38,11.81,12.57,18.51,2.74,15.53,2.88,31.54,3.67,47.38.6,12.11,4.15,25.74-.14,35.97-4.45,10.61-17.3,17.46-25.42,26.87-6.07,7.03-10.35,15.59-15.6,23.34-5.91,8.72-11.32,17.99-18.64,25.33-1.41,1.42-14.14-3.74-15.68-8.01-4.84-13.36-5.67-28.15-10.4-41.56-2.43-6.9-10.44-11.66-14.79-18.15-2.6-3.88-3.81-9.17-4.17-13.93-.56-7.47-.44-15.1.39-22.56,2.92-26.35,2.97-53.35,16.05-77.56,1.63-3.02,4.97-5.13,7.51-7.66,2.68,2.83,6.93,5.28,7.73,8.56,2.3,9.44,3.2,19.23,4.65,28.88-1.15.32-2.29.64-3.44.97Z"/><path d="m1470.65,233.73c0-13.22.68-26.49-.15-39.65-1.53-24.29-4.75-48.49-5.62-72.79-.36-10.16,4.32-20.4,5.19-30.73,1.04-12.34.48-24.81.57-37.23.05-7.71-1.55-15.88.49-23.01,1.7-5.95,6.73-13.37,11.97-15.12,4.27-1.43,12.44,3.24,16.42,7.5,10.66,11.42,20.02,24.07,29.84,36.27.45.56.85,1.86.55,2.2-13.85,15.92,4.83,27.43,5.65,41.34.15,2.48,2.02,4.93,1.92,7.34-.98,23.36-1.63,46.77-3.57,70.06-1.21,14.45,2.21,30.02-9.09,42.63-7.25,8.1-13.12,17.45-20.5,25.42-5.73,6.2-12.37,11.85-19.44,16.46-9.49,6.19-12.6-1.88-13.77-8.66-1.24-7.15-.28-14.68-.28-22.04-.06,0-.12,0-.18,0Z"/><path d="m2769.87,105.57c-1.02,18.5-2.23,32.1-2.32,45.7-.04,7.04,4.7,15.27,2.32,20.86-3.6,8.45-10.68,16.07-17.87,22.18-7.2,6.11-16.61,9.25-16.39,21.3.36,19.6-9.16,30.18-26,29.11-3.43-.22-7.88-2.83-9.75-5.71-9.54-14.64-18.28-29.79-27.59-44.58-1.28-2.03-4.85-2.61-6.15-4.63-3.45-5.37-8.15-10.92-8.94-16.85-2.23-16.61-2.15-32.97,4.66-49.37,4.72-11.36,4.17-24.79,7.73-36.77,2.68-9.02,2.53-22.06,17.06-21.94,13.25.11,10.85,12.53,14.15,20.09,3.39,7.78,6.3,15.93,8.04,24.21,1.54,7.33.86,15.1,1.84,22.59.27,2.02,3.01,3.72,4.62,5.56,1.52-1.75,3.73-3.25,4.45-5.28,4.92-13.87,9.31-27.94,14.36-41.76,1.99-5.45,4.7-10.81,8.04-15.55,2.71-3.84,6.5-7.3,10.58-9.52.99-.54,6.39,4,7.39,6.99,4.2,12.54,7.5,25.38,9.78,33.38Z"/><path d="m2040.11,270.09c-7.37-9.17-14.47-18.58-22.2-27.43-6.15-7.04-14-12.75-19.36-20.28-3.79-5.33-4.76-12.69-6.83-19.19-.52-1.62-.58-3.44-.57-5.16.05-6.65.12-13.29.35-19.93.25-6.84.38-13.7,1.13-20.49,1.87-16.9,4.22-33.75,6.08-50.65,3.15-28.56,18.38-51.56,34.1-74.29,3.14-4.54,6.91-10.04,11.61-11.75,4.9-1.78,14.85-1.33,16.21,1.37,2.41,4.76.3,12-.51,18.12-1.12,8.46-3.7,16.8-4.05,25.26-.67,16.09-.19,32.23-.19,48.34,0,17.19.35,34.39-.13,51.56-.27,9.63-3.01,19.26-2.62,28.81.44,10.78,1.89,21.88,5.25,32.07,2.94,8.93.23,36.43-6.31,39.11-2.52,1.03-5.38,1.22-8.08,1.79-1.29.91-2.58,1.83-3.87,2.74Z"/><path d="m625.82,486.47c-3.71-22.63,4.9-39.7,22.06-54.23,5.06-4.28,6.39-12.72,10.22-18.76,1.99-3.13,5.97-7.51,8.59-7.22,5.79.64,11.77,3.15,16.73,6.35,3.08,1.99,4,7.02,6.66,10.02,7.46,8.41,17.34,15.41,22.42,25,4.45,8.41,4.44,19.52,5,29.52.4,7.23-1,14.69-2.45,21.87-3.93,19.46-8.19,38.86-12.73,58.19-.36,1.53-3.8,3.1-5.86,3.18-1.2.04-2.83-2.71-3.69-4.49-2.49-5.11-5.02-10.24-6.93-15.58-3.22-9.01-5.9-18.21-9-27.27-.68-1.99-2.17-3.7-3.28-5.54-1.94,2.4-5.23,4.61-5.58,7.22-1.6,11.76.03,24.62-4.31,35.1-2.71,6.55-13.98,9.57-21.4,14.17-1.09-2.1-2.6-4.09-3.2-6.33-3.99-14.84-8.35-29.61-11.41-44.64-1.76-8.62-1.29-17.7-1.83-26.57Z"/><path d="m582.61,479.34c-5.26,18.53-10.44,36.43-15.34,54.41-.85,3.12-.03,6.69-.82,9.84-3.15,12.51-6.5,24.98-10.46,37.25-.16.49-9.06.04-10.66-2.23-2.78-3.94-3.74-9.59-4.22-14.65-1.45-15.33-2.23-30.72-3.52-46.07-.12-1.43-1.99-2.71-3.04-4.06-1.98,2.53-5.4,4.91-5.69,7.62-1.57,14.71-1.22,29.72-4.02,44.14-1.04,5.39-8.81,9.47-13.52,14.15-2.61-2.63-6.94-4.91-7.56-7.94-3.87-19.14-7.11-38.41-10.14-57.7-1.49-9.5-2.86-19.16-2.84-28.74.03-11.31-2.32-21.77,8.09-32.9,10.27-10.98,13.07-28.74,20.15-43.03,1.63-3.29,7.49-6.58,11.13-6.29,4.92.38,11.16,3.01,14.04,6.79,10.06,13.22,19.61,26.95,27.96,41.29,4.72,8.11,6.74,17.79,10.46,28.12Z"/><path d="m3367.09,222.74c-6.82-4.52-13.58-9.14-20.49-13.53-5.72-3.64-14.36-5.71-16.8-10.81-3.94-8.25-4.54-18.37-5.3-27.8-1.11-13.83-1.32-27.74-1.54-41.62-.19-12.1-.66-24.3.64-36.28.48-4.41,5.43-11.52,8.73-11.74,5.56-.38,11.46,3.66,17.14,6.05,1.25.52,2.02,2.49,3.21,2.7.77.14,1.84-1.77,2.87-2.64,2.61-2.21,5.49-6.34,7.86-6.07,3.94.44,7.45,3.94,11.33,5.74,3.5,1.62,7.72,4.46,10.82,3.66,8.82-2.27,13.59,1.62,14.21,9.16,1.71,20.53,2.17,41.16,3.46,61.74.58,9.2,3.69,18.56,2.61,27.47-2.66,21.86-14.32,30.96-38.75,33.98Z"/><path d="m2887.52,550.08c-.94-9.34-1.98-21.19-3.5-32.97-.18-1.35-3.02-2.36-4.63-3.53-2.47,3.6-6.23,6.89-7.16,10.85-2.85,12.15-4.37,24.6-7,36.81-.49,2.26-4.21,5.81-5.67,5.48-3.54-.82-8.69-2.93-9.55-5.67-5.82-18.43-11.75-36.95-15.55-55.86-2.93-14.61-1.87-29.47,7.39-42.73,12.46-17.85,24.15-36.23,36.52-54.14,1.6-2.32,6.94-5.12,7.76-4.43,4.12,3.5,10.76,8.57,10.25,12.21-2.42,17.11,6.78,29.24,14.2,42.84,8.26,15.12,6.55,31.51,1.65,47.89-2.18,7.3-.51,15.72-2.53,23.09-3.57,13-8.53,25.62-13.28,38.26-.44,1.17-3.63,2.02-5.36,1.76-1.33-.2-3.25-2.28-3.38-3.66-.43-4.52-.16-9.1-.16-16.18Z"/><path d="m2693.66,522.76c-2.81-15.65-6.07-31.23-8.32-46.95-3.15-22,13.46-33.28,25.42-47.85,8.07-9.82,14.56-12.54,24.55-6.19,3.06,1.95,6.92,6.82,6.38,9.55-3.76,18.8,7.37,33.83,11.51,50.58.44,1.76-.93,3.98-1.51,5.98-7,24.04-13.93,48.11-21.15,72.09-.85,2.84-3.35,5.18-5.09,7.75-1.11-2.98-1.99-6.07-3.39-8.9-1.1-2.22-2.86-4.12-4.33-6.16-2.74,3.61-5.51,7.2-8.22,10.84-1.85,2.49-3.61,5.04-5.42,7.56-3.19-2.38-8.35-4.21-9.2-7.24-2.18-7.83-2.71-16.16-3.41-24.34-.46-5.4-.09-10.87-.09-16.3.76-.14,1.51-.28,2.27-.42Z"/><path d="m174.89,201.21c-9.79-5.88-19.78-11.46-29.3-17.74-6.1-4.03-12.52-8.36-16.79-14.05-2.04-2.73.81-8.93,1.06-13.58,1.16-21.42,1.4-42.94,3.93-64.18.5-4.17,4.69-15.9,16.12-9.08,2.73,1.63,7.76-.2,11.61-1.02,2.1-.45,4.99-3.54,5.71-3,2.81,2.07,4.89,5.13,7.24,7.82,1.01,1.16,1.93,3.22,3.02,3.31,1.82.15,3.78-.85,5.6-1.57,3.45-1.35,6.85-2.85,10.27-4.28,1.07,2.62,3.16,5.29,3.04,7.86-.67,14.28-2.97,28.56-2.6,42.78.34,13,4.05,25.88,4.93,38.9.49,7.28.25,16.06-3.45,21.67-2.34,3.55-11.66,2.51-17.85,3.54-.85.88-1.7,1.76-2.55,2.63Z"/><path d="m2.27,456.47c2.84-5.04,5.83-10.64,9.1-16.09,4.76-7.92,9.3-16.02,14.78-23.43,2.37-3.21,7.03-7.07,10.29-6.76,5.14.48,10.23,3.81,14.86,6.71,4.72,2.96,8.98,6.7,13.23,10.35,8.73,7.49,18.06,14.5,25.49,23.13,2.2,2.55-.24,10.2-2.12,14.89-3.4,8.48-9.03,16.14-11.8,24.76-3.97,12.4-6.57,25.28-9.08,38.08-2.42,12.36-3.5,25-6.27,37.27-.71,3.14-5.87,7.82-8.44,7.49-5.61-.71-14.21-2.91-15.67-6.74-5.91-15.53-12.1-31.71-13.41-48.04-1.54-19.27-9.81-34.99-17.91-51.35-1.34-2.7-1.77-5.84-3.06-10.28Z"/><path d="m791.53,535.42c-1.31-19.38-3.72-38.76-3.53-58.12.12-12.46,2.74-25.33,6.78-37.15,2.07-6.06,10.42-14.89,14.7-14.25,8.11,1.22,16.69,7.08,22.59,13.35,7.13,7.58,12.39,17.23,17.01,26.7,2.09,4.28,1.7,10.47.65,15.42-2.02,9.44-6.43,18.45-7.84,27.93-2.07,13.91-1.83,28.15-3.75,42.09-.62,4.48-4.67,8.65-7.67,12.58-1.68,2.21-4.41,3.63-6.66,5.41-1.52-5.34-2.81-10.76-4.66-15.99-1.03-2.92-2.97-5.51-4.5-8.25-2.6,2.87-5.96,5.38-7.59,8.72-1.89,3.86-1.41,8.98-3.6,12.55-1.36,2.22-5.74,3.25-8.84,3.41-1.18.06-3.57-3.79-3.67-5.93-.41-9.45-.18-18.92-.18-28.39.25-.02.5-.04.76-.06Z"/><path d="m2075.94,459.33c-4.49,17.99-9.69,34.97-12.71,52.33-1.98,11.4.54,23.58-1.4,35-1.93,11.3-6.42,22.3-11.02,32.9-.96,2.22-7.29,2.55-11.19,2.73-.82.04-2.07-4.35-2.75-6.81-2.8-10.15-5.73-20.28-8.05-30.54-1.02-4.53-1.02-9.38-.9-14.06.51-19.87,1.7-39.74,1.67-59.62,0-7.97-1.12-16.52-4.18-23.77-4.21-9.97,4.19-29.91,14.74-32.46,4.26-1.03,10.16-6.75,11.67-5.59,6.24,4.77,13.02,10.53,15.98,17.47,4.36,10.24,5.63,21.8,8.12,32.42Z"/><path d="m3454.65,505.15c-2.5-10.77-5.66-21.45-7.06-32.35-.39-3.06,4.22-6.98,6.94-10.16,2.51-2.94,6.68-4.92,8.17-8.21,4.95-10.88,25.41-18.17,35.72-12.1,19.35,11.39,20.13,18.43,12.43,41.1-5.51,16.23-6.96,33.9-9.57,51.02-2.59,16.99-4.26,34.12-6.74,51.14-.21,1.43-3.7,3.72-5.18,3.39-4.56-.99-11.7-1.99-12.81-4.9-4.47-11.7-6.68-24.24-10.45-36.24-2.9-9.24-7.13-18.06-10.28-27.24-1.65-4.8-2.24-9.96-3.31-14.96.71-.16,1.42-.32,2.13-.47Z"/><path d="m1942.1,74.69c0,26.17-.55,52.36.35,78.5.25,7.39,5.51,14.48,7.07,21.99,2.7,12.98,14.15,27.14,4.12,38.9-8.28,9.72-22.25,19.29-34.18,19.93-12.71.68-23.62-10.96-21.78-27.52,1.11-9.98,2-19.98,3.02-29.96,1.09-10.66,1.55-21.45,3.47-31.96,3.62-19.81,8.07-39.46,12.24-59.17,1.43-6.77,1.55-14.47,5.09-19.93,3.02-4.65,12.33-10.56,14.88-9.08,5.27,3.07,7.88,10.67,11.59,16.41-1.96.63-3.91,1.26-5.87,1.89Z"/><path d="m1585.83,201.79c2.77-29.54,6.22-59.05,8-88.65.79-13.09-3.27-26.48-2.29-39.53.57-7.58.63-21.73,14.72-17.55,5.55,1.64,10.95,10.72,12.58,17.35,5.38,21.92,9.94,44.13,13.02,66.48,2.49,18.08,3.42,36.53,3.07,54.78-.21,11.06-2.92,22.59-7.29,32.71-1.18,2.74-12.62,2.05-19.12,1.2-5.43-.71-11.79-2.71-15.45-6.4-5.02-5.05-7.89-12.23-11.68-18.5,1.48-.63,2.96-1.25,4.44-1.88Z"/><path d="m1743.85,179.57c-9.78,15.99-18.49,32.78-29.81,47.59-5.1,6.68-12,1.31-15.17-6.02-3.97-9.19-9.95-17.99-11.64-27.56-1.51-8.59,1.24-18.05,2.81-27.01,1.18-6.71,4.77-13.16,5.04-19.82.72-18.03-.5-36.15.53-54.14.61-10.64,3.82-21.19,6.91-31.46.15-.51,13.26.19,15.18,3.4,4.71,7.88,7.56,17.36,9.05,26.55,2.22,13.74,2.02,27.85,3.99,41.64,2.13,14.89,5.58,29.6,8.46,44.38l4.66,2.45Z"/><path d="m2605.62,179.89c-2.3,3.85-6.35,11-10.77,17.92-2.76,4.32-6.06,8.3-9.15,12.4-7.59,10.06-20.08,9-27.69-1.06-5.66-7.48-14.17-12.86-19.52-20.5-2.61-3.73-2.16-10.8-.89-15.8,3.16-12.45,7.38-24.66,11.58-36.82,2.94-8.53,5.84-17.2,10.03-25.14,6.07-11.5,11.9-23.67,20.57-33.03,4.41-4.76,15.73-7.03,22.24-5,8.44,2.63,7.72,10.93,4.81,20.11-4.28,13.53-6.38,28.19-6.62,42.42-.23,13.5,3.12,27.05,5.41,44.5Z"/><path d="m990.24,165.88c0,20.79-20.8,45.63-36.12,46.36-7.42.35-13.55-3.59-18.13-11.9-5.87-10.66-15.83-19.22-12.27-33.04,1.53-5.93,5.85-11.61,5.84-17.39-.03-15.74-2.48-31.47-2.42-47.2.04-10.63-.16-22.93,4.86-31.51,8.09-13.82,27.92-9.64,32.68,6.08,3.22,10.63,4.31,21.89,6.61,32.82,3.1,14.77,5.73,29.7,10.06,44.12,1.66,5.53,7.42,9.82,8.9,11.68Z"/><path d="m1476.8,513.76c-2.33-30.2-4.68-60.4-6.92-90.6-.09-1.26.61-3.32,1.53-3.74,1.36-.63,3.24-.11,4.9-.1,4.65.04,9.91,1.5,13.82-.18,11.12-4.77,29.2,2.02,30.65,15.18,1.48,13.45-2.38,27.5-4.01,41.28-.28,2.34-1.26,4.59-1.58,6.93-3.27,23.94-6.39,47.9-9.88,71.81-.19,1.31-3.51,3.36-4.98,3.06-5.57-1.11-14.64-1.71-15.81-4.9-4.5-12.26-6.44-25.46-9.34-38.31.54-.14,1.07-.28,1.61-.42Z"/><path d="m1695.55,555.93c1.17-12.09,3.13-20.87,2.62-29.51-1.16-19.58-4.14-39.05-5.15-58.63-.41-7.87,1.63-16.15,3.97-23.81,2.92-9.56,7.17-18.72,11.16-27.92.72-1.65,3.25-3.96,4.45-3.71,5.86,1.25,12.93,1.77,16.93,5.43,4.49,4.11,6.7,11.12,8.82,17.24,1.2,3.48.95,7.87.11,11.57-2.42,10.71-7.81,21.28-7.82,31.91-.04,26.95-.19,53.49-12.75,78.32-1.87,3.69-1.74,8.35-3.38,12.2-1.59,3.74-4.27,7.03-6.47,10.51-2.91-3.36-6.69-6.3-8.51-10.17-2.43-5.17-3.33-11.06-3.99-13.44Z"/><path d="m1799.68,176.17c1.75-15.81,3.86-37,6.54-58.12,1.57-12.4,2.9-25.04,6.6-36.87,1.96-6.26,8.77-11.01,13.4-16.45,4.87,5.93,13.08,11.42,13.96,17.89,2.08,15.3-.46,31.17,1.02,46.61,1.22,12.76,6.62,25.11,8.01,37.88.87,7.93.04,17.9-4.21,24.08-5.37,7.82-14.19,14.57-23,18.4-10.36,4.5-22.32-11.31-22.32-33.42Z"/><path d="m2615.79,473.85c-2.95,10.15-6,16.27-6.28,22.51-.73,16.2.59,32.53-.73,48.66-.43,5.21-6.51,9.96-10.01,14.92-3.88-3.75-8.86-6.87-11.44-11.37-6.65-11.59-13.62-23.33-17.75-35.91-2.68-8.15-1.69-18.02-.36-26.82,1.76-11.61,4.55-23.28,8.69-34.25,2.43-6.45,8.34-11.6,12.69-17.33,4.15,4.41,9.26,8.26,12.24,13.35,5.45,9.32,9.65,19.38,12.96,26.22Z"/><path d="m1591.04,532.76c-1.3-7.91-3.95-20.13-5.15-32.49-1.2-12.33-.9-24.81-1.36-37.21-.11-2.9-.76-5.79-.89-8.69-.3-6.65-3.16-16.51,0-19.2,4.86-4.13,14.49-5.62,21.05-4,7.19,1.78,13.5,7.99,19.49,13.09,1.54,1.31,1.12,5.85.46,8.63-2.51,10.52-6.65,20.78-8.06,31.41-2.92,21.96-4.28,44.13-7.01,66.13-.21,1.71-6.39,4.15-9.35,3.65-3.32-.56-7.19-3.49-8.86-6.48-1.49-2.67-.31-6.83-.31-14.83Z"/><path d="m1953.38,440.5c-3.43,11.79-6.65,21.33-8.86,31.09-1.03,4.54.04,9.53-.1,14.3-.44,14.8-.69,29.61-1.69,44.38-.35,5.16-2.05,10.51-4.37,15.15-1.2,2.4-7.19,5.18-7.5,4.81-3.02-3.56-6.1-7.47-7.59-11.82-2.64-7.67-5.14-15.63-5.87-23.63-.59-6.57,2.61-13.46,2.16-20.07-1.55-23.12-4.06-46.17-5.88-69.27-.18-2.23,1.37-5.08,2.99-6.86,3.71-4.08,6.97-9.53,13.3-1.67,3.42,4.24,10.66,5.24,14.66,9.21,3.99,3.96,6.1,9.81,8.75,14.36Z"/><path d="m944.01,515.15c-1.5-14.28-5.21-28.78-3.74-42.75,1.04-9.87,9.11-19.01,14.05-28.47,8.8,5.16,19.48,8.62,25.98,15.84,11.98,13.32,8.65,28.77.84,43.7-1.52,2.91-.4,7.25-.36,10.93.08,7.95.92,14.96-8.76,20.04-6.05,3.17-8.46,12.72-13.61,18.4-2.4,2.65-7.77,4.46-11.15,3.72-2.17-.48-4.29-6.23-4.48-9.73-.58-10.49-.21-21.03-.21-31.56.48-.05.97-.09,1.45-.14Z"/><path d="m1825.22,443.68c21.4.04,26.47,6.16,25.31,22.79-.82,11.69.93,23.62-.46,35.21-2.09,17.41-5.81,34.64-9.25,51.86-.33,1.64-3.83,4.03-5.39,3.72-2.51-.51-6.19-2.61-6.67-4.66-2.76-11.96-5.49-24.02-6.75-36.19-1.09-10.55.19-21.33-.34-31.97-.49-9.94-2.91-19.85-2.62-29.72.13-4.43,4.78-8.73,6.15-11.04Z"/><path d="m1115.29,57.34c1.93-5.2,2.45-9.91,4.07-10.32,5.04-1.28,10.52-.7,15.77-1.32,2.7-.32,5.27-2.4,7.91-2.43,18.83-.23,36.76,2.44,52.26,14.78,4.61,3.67,11.58,4.26,16.59,7.58,12.15,8.06,24.16,16.42,35.49,25.58,8.23,6.66,14.82,15.33,23.01,22.06,6,4.93,14.08,7.35,20,12.35,6.36,5.38,11.82,12.08,16.71,18.88,9.36,13,18.1,26.45,26.88,39.86.74,1.13.3,4.54-.41,4.82-2.47.96-5.35,1.57-7.97,1.3-6.67-.69-13.31-1.79-19.91-3.02-1.79-.33-4.92-2.2-4.82-2.51.94-2.88,2.31-5.67,3.96-8.22.22-.35,2.67.79,4.1,1.17,4.46,1.19,8.94,2.34,13.4,3.51-2.53-3.4-5.46-6.59-7.46-10.28-1.3-2.4-1.07-5.59-1.9-8.31-.41-1.33-1.47-3.03-2.61-3.4-1.08-.35-3.88,1.1-3.84,1.27,3.3,14.31-10.92,8.97-15.76,14.04-1,1.04-2.33,1.77-3.5,2.64,1.48,1.55,2.84,3.22,4.47,4.6,1.3,1.1,2.95,1.8,4.32,2.83.1.08-.68,2-1.13,2.04-2,.16-4.19-.58-6-.01-2.87.89-5.45,2.69-8.25,3.87-5.08,2.15-11.96,7.21-14.98,5.52-5.44-3.05-8.26-10.47-12.78-15.52-3.94-4.4-8.75-8.02-13.11-12.05-.96-.89-2.35-2.04-2.37-3.1-.29-17.07-10.4-8.33-18.16-7.47-3.18.35-7.78-1.57-9.89-4.04-7.2-8.42-13.37-17.7-20.31-26.35-9.14-11.38-17.62-23.58-28.26-33.39-11.04-10.18-24.47-17.73-36.53-26.85-3.64-2.75-6.21-6.91-8.99-10.1Z" style="fill:#fff;"/><path d="m1209.9,592.35c-13.43,1-24.15,2.62-34.83,2.4-15.96-.33-31.93-1.65-47.82-3.32-2.54-.27-6.43-4.45-6.55-6.97-.16-3.42,1.76-8.28,4.45-10.24,7.44-5.4,15.6-9.85,23.74-14.2,5.98-3.2,12.51-5.37,18.5-8.55,2.19-1.16,3.17-4.74,5.37-5.72,4.02-1.79,9.78-1.16,12.61-3.86,8.1-7.73,14.83-16.87,22.6-24.98,9.45-9.87,19.68-17.58,33.51-22.41,14.03-4.9,25.66-16.44,38.78-24.34,1.69-1.02,6.37,1.83,9.06,3.73,11.16,7.88,22.28,15.85,32.96,24.36,2.06,1.64,3.84,7,2.74,8.7-9.06,13.96-17.49,28.75-28.86,40.65-7.24,7.58-19.33,10.4-28.95,15.88-7.45,4.24-14.05,10.07-21.71,13.78-12.28,5.94-25.12,10.7-35.6,15.07Z" style="fill:#fff;"/><path d="m1318.95,197.79c1.05,0,2.16.21,3.15-.03,16.37-4.01,20.23,6.07,21.95,19.06,1.87,14.14,3.6,28.34,6.4,42.31,2.22,11.08,7.74,21.74,8.51,32.81.71,10.28-2.85,20.88-4.68,31.31-1.19,6.77-3.82,13.49-3.78,20.22.13,19.32-4.62,36.81-17.41,51.46-1.76,2.02-7.59,2.7-10,1.32-2.24-1.28-2.79-6.07-3.48-9.43-2.32-11.49-4.51-23.01-6.49-34.56-1.34-7.83-.76-16.32-3.62-23.49-6.07-15.21-13.94-29.69-20.87-44.56-4.62-9.91-9.05-19.93-13.11-30.07-.49-1.23,1.98-5.23,2.81-5.15,10.14,1,11.67.36,8.98-11.11-1.35-5.76-7.48-10.44-11.69-15.41-.2-.24-3.92,1.4-4.02,2.37-.36,3.53-.32,7.26.47,10.7.43,1.85,2.71,3.27,4.16,4.88-2.99-.9-7.76-.95-8.65-2.84-3.75-7.95-16.01-16.41-1.52-24.95,8.17-4.82,17.15-8.64,26.23-11.41,8.5-2.6,17.6-3.21,26.43-4.7.07.43.15.86.22,1.29Z" style="fill:#fff;"/><path d="m1306.23,435.16c7.2-6.41,13.54-14.41,21.8-18.88,14.03-7.6,19.69-20.59,26.75-33.28,5.42-9.75,12.16-18.79,18.58-27.95,2.16-3.08,5.03-5.71,7.83-8.26,1.48-1.35,3.51-2.11,5.29-3.13,1.62,3.6,5,7.43,4.57,10.77-2.48,19.58-5.08,39.2-9.16,58.49-3.11,14.7-7.39,29.38-13.26,43.17-3.43,8.07-10.82,14.54-16.76,21.45-3.76,4.37-7.99,8.37-12.31,12.2-1.06.94-3.76,1.36-4.91.68-13.84-8.2-28.09-15.89-40.98-25.41-5.52-4.08-10.74-11.8-11.52-18.41-1.75-14.87,9.62-15.71,24.09-11.45Z" style="fill:#fff;"/><path d="m2395.37,27.32c9.61-1.08,19.2-2.72,28.84-2.99,4.98-.14,10.07,2.03,14.99,3.53.74.22,1.61,3.19,1.15,3.66-4.76,4.94-9.69,9.74-14.76,14.37-7.71,7.04-14.84,15.17-23.67,20.36-5.04,2.96-13,.72-19.58,1.45-2.59.29-5,2.28-7.49,3.5,2.53,2.22,4.97,4.56,7.65,6.6,1.26.96,2.97,1.34,4.48,1.98-.82,1.35-1.64,2.7-2.47,4.05-8.61,13.89-17.17,27.82-25.87,41.65-7.63,12.13-15.25,24.28-23.18,36.21-6.94,10.44-13.45,21.38-21.93,30.44-3.06,3.27-12.02,3.73-17.02,1.95-11.78-4.21-22.32-12.39-34.26-15.53-12.57-3.3-26.2-2.52-39.34-3.74-1.77-.16-4.6-1.33-4.85-2.49-.38-1.76.86-4.01,1.78-5.87,1.24-2.52,2.74-4.92,4.33-7.24.61-.89,1.7-1.78,2.69-1.95.62-.11,1.44,1.18,2.23,1.76,1.8,1.32,3.63,2.58,5.46,3.86.55-3.19.84-6.46,1.7-9.56,1.71-6.15,2.46-13.1,5.92-18.12,6.77-9.8,14.82-18.81,22.93-27.59,9.44-10.22,19.45-19.93,29.38-29.69,3.61-3.55,7.33-7.22,11.62-9.81,10.84-6.55,22.08-12.44,33.08-18.73,6-3.43,11.75-7.32,17.8-10.67,3.38-1.88,7.05-3.37,10.76-4.52,9.05-2.81,18.2-5.32,27.31-7.95.11.36.22.73.33,1.09Z" style="fill:#fff;"/><path d="m2430.86,614.16c-7.01,1.96-14.07,5.68-21.02,5.48-11.47-.33-23.04-2.5-34.25-5.19-10.41-2.49-20.51-6.42-30.54-10.28-2.24-.86-3.22-4.62-5.42-6.08-5.15-3.41-10.37-7.12-16.12-9.14-14.88-5.23-25.92-12.37-27.67-30.41-.54-5.57-9.35-10.36-14.44-15.45-3.82-3.82-7.57-7.74-11.73-11.16-.85-.7-3.38.66-5.14,1.07,1.17,2.92,2.17,5.93,3.56,8.74,1.33,2.68,3.07,5.17,4.63,7.74-3.51-1.19-7.93-1.44-10.33-3.76-5.43-5.26-9.62-11.78-14.76-17.38-6.8-7.41-14.25-14.25-20.99-21.71-3.45-3.82-5.96-8.48-8.9-12.75,4.6-1.84,9.36-3.38,13.79-5.58,11.43-5.67,23.18-10.9,33.91-17.71,8.95-5.68,15.86-3.28,21.24,6.02,4.71,8.15,12.85,14.29,19.24,21.53,7.27,8.23,14.29,16.67,21.35,25.08.59.71.39,2.17,1.04,2.73,5.03,4.28,9.98,8.71,15.36,12.51,4.75,3.36,10.84,5.15,14.9,9.1,8.15,7.93,14.91,17.3,23.14,25.15,2.85,2.72,9.46,1.47,12.36,4.17,5.04,4.69,8.88,14.23,10.7-1.45.05-.46,2.67-1.34,3.34-.89,10.03,6.67,19.94,13.53,29.87,20.35.41.28.85.52,1.27.78,3.69,2.23,7.38,4.47,11.07,6.7-5.66,5.46-11.32,10.93-16.98,16.39l-2.5-4.6Z" style="fill:#fff;"/><path d="m2239.91,179.73c12.66,5.15,28.03,11.49,43.48,17.61,2.5.99,6.23.05,7.92,1.61,3.08,2.83,7.74,7.72,6.93,10.21-1.6,4.97-6.66,8.74-9.89,13.29-3.01,4.24-5.58,8.8-8.22,13.3-7.29,12.4-14.93,24.63-21.54,37.38-2.53,4.88-3.39,10.94-3.76,16.55-1.4,21.2-2.58,42.43-3.19,63.67-.19,6.69,3.71,14,2.06,20.01-2.21,8.04-8.01,15.1-12.27,22.59-5.85-5.72-14.36-10.42-17-17.36-5.85-15.35-8.91-31.77-12.76-47.85-1.65-6.87-2.86-13.91-3.5-20.95-1.35-14.82-2.27-29.68-3.22-44.53-1.15-18.06-3.28-36.15-2.72-54.17.25-8.04,4.08-18.02,9.82-23.25,5.44-4.95,15.5-4.85,27.86-8.11Z" style="fill:#fff;"/><path d="m2221.96,482.28c-4.04-1.31-7.25-2.35-10.46-3.4,2.54-.99,5.55-1.46,7.44-3.16,1.32-1.19,2.1-5.53,1.41-6-7.04-4.87-14.53-13.14-21.69-12.95-16.67.45-18.49-13.01-21.48-21.77-4.13-12.09-2.45-26.07-4.12-39.13-1.33-10.42-5.64-20.72-5.44-31.01.17-9.22,4.19-18.54,7.38-27.51,4.8-13.5,10.37-4.24,15.12.18,10.67,9.91,15.37,21.82,18.14,36.67,2.28,12.25,13.51,22.91,21.05,34.09,5.27,7.81,10.14,16.18,16.75,22.73,7.58,7.49,16.93,13.18,25.38,19.81.92.72,1.75,3.32,1.41,3.61-5.72,4.8-11.25,10.02-17.62,13.81-6.99,4.16-14.75,7.07-22.27,10.29-3.63,1.55-7.48,2.57-11.01,3.75Z" style="fill:#fff;"/><path d="m3130.04,136.82c-2.87,10.95-6.53,21.79-8.16,32.93-.53,3.64,3.22,9.38,6.68,11.88,13.78,9.95,16.5,30.88,4.22,42.62-2.73,2.62-7.88,2.52-11.5,4.46-7.38,3.95-14.28,8.83-21.78,12.52-3.83,1.89-8.51,2.52-12.82,2.56-.9,0-2.25-5.03-2.69-7.84-1.17-7.45-2.66-14.96-2.57-22.43.04-3.21,3.97-6.23,5.57-9.61,1.48-3.12,2.99-6.57,3.1-9.92.2-6.41-.77-12.84-.87-19.27-.03-1.73.9-4.3,2.2-5.02,1.63-.9,4.15-.6,6.2-.27,13.46,2.16,20.69-.83,18.37-17.02-1.27-8.88,1.94-18.35,2.54-27.59.14-2.16-2.14-4.47-3.3-6.71-2.26,2.57-5.28,4.8-6.63,7.78-4.6,10.19-8.38,20.76-13.2,30.83-.48.99-6.01-.82-9.16-.65-17.13.93-34.26,1.91-51.36,3.2-8.51.64-17.01,2.92-25.44,2.58-4.39-.18-8.46-4.74-12.94-6.76-6.91-3.12-14-5.87-21.13-8.49-1.7-.63-4.15.54-5.7-.23-3.09-1.54-5.79-3.84-8.65-5.83,2.55-.91,5.04-2.08,7.65-2.65,3.44-.75,6.99-1.04,10.5-1.52-1.69-2.3-3.7-4.46-4.89-7-.39-.83,1.28-2.7,2.14-4,.96-1.46,2.07-2.82,3.12-4.23-1.45-1.01-2.88-2.86-4.34-2.89-7.44-.1-10.91-1.17-5.89-9.68,2.85-4.83,2.82-11.43,3.79-17.28,3.32-19.94,6.13-39.97,10.05-59.79.75-3.81,5.64-6.8,8.62-10.16,1.99,3.67,5.72,7.36,5.67,10.99-.19,12.44-3.21,24.97-2.31,37.27.93,12.67,5.18,25.09,7.97,37.63,1.39,6.23,2.46,12.55,4.25,18.67,2.51,8.56,4.35,17.72,8.96,25.07,1.87,2.99,10.31,2.62,15.65,2.25,1.69-.12,2.44-5.84,4.66-7.86,5.47-4.97,11.46-9.37,17.4-13.79,2.42-1.81,5.24-3.08,7.87-4.6-1.48-2.01-3.13-3.93-4.39-6.07-.9-1.53-2.33-4.02-1.74-4.95,3.5-5.52,8.06-10.41,11.22-16.09,3.12-5.6,5.49-11.75,7.37-17.9,4.74-15.57,8.81-31.35,13.71-46.87.64-2.03,5.38-4.83,6.79-4.18,3.82,1.76,8.77,4.58,9.9,8.06,4.1,12.7,6.4,25.97,10.2,38.78,3.3,11.11,8.64,21.67,11.35,32.89,1.97,8.15,1.13,16.99,1.54,25.51.73.23,1.46.46,2.19.69Z" style="fill:#fff;"/><path d="m2987.09,215.09c3.64-6.7,7.31-13.51,11.04-20.29,1.06-1.92,3.25-3.69,3.33-5.6.5-13,9.55-15.37,19.81-16.67,16.05-2.03,32.09-4.14,48.09-6.44,3.22-.46,6.33-2.73,9.43-2.61,1.48.06,4.31,4.06,3.97,5.75-1.51,7.44-3.35,14.96-6.38,21.88-1.19,2.71-5.7,4.13-8.87,5.78-4.17,2.17-9.18,3.2-12.66,6.12-10.12,8.47-2.8,12.04,4.34,17.72,10.47,8.33,12.83,19.79,4.43,31.58-6.24,8.76-12.12,17.97-19.55,25.62-7.53,7.75-14.01-.19-19.74-4.34-5.27-3.82-9.99-8.68-14.12-13.76-5.14-6.32-10.16-12.95-13.89-20.14-3.72-7.17-5.79-15.19-9.23-24.6Z" style="fill:#fff;"/><path d="m2969.01,150.75c10.44,4.27,17.65,6.91,24.52,10.25,1.81.88,4.12,4.82,3.54,5.86-2.86,5.07-6.46,9.77-10.13,14.34-2.42,3.01-5.79,5.29-8.02,8.41-2.21,3.1-3.51,6.85-5.2,10.32-2.28-1.83-5.55-3.19-6.65-5.56-4.57-9.79-10.13-19.63-11.77-30.01-.59-3.73,8.85-9.03,13.71-13.61Z" style="fill:#fff;"/><path d="m3029.09,62.37c-2.06,10.09-4.35,19.12-5.56,28.29-.56,4.29,1.07,8.85,1.55,13.3.25,2.27.91,4.97-.01,6.74-.91,1.75-3.59,2.59-5.49,3.83-.67-2.21-1.3-4.43-2.01-6.62-.74-2.27-2.14-4.49-2.21-6.76-.14-4.47.87-9,.6-13.45-.22-3.66-.38-8.71-2.67-10.62-9.9-8.26-4.58-14.27,2.04-20.29,2.79-2.54,6.08-4.55,9.14-6.79,1.67,4.47,3.34,8.93,4.62,12.36Z" style="fill:#fff;"/><path d="m3029.96,142.41c-1.17,1.06-2.78,2.53-4.4,4-2.63-3.19-5.55-6.19-7.8-9.63-1.45-2.23-2.17-5.05-2.74-7.71-.38-1.77-.59-4.24.36-5.43.87-1.1,3.55-1.5,5.11-1.07,1.13.31,1.89,2.43,2.54,3.87,2.16,4.79,4.21,9.64,6.94,15.96Z" style="fill:#fff;"/><path d="m576.4,180.9c-8.3,7.96-15.96,15.06-23.33,22.44-7.62,7.62-12.91,4.18-18.8-2.54-1.2-1.37-6.66.61-9.97,1.65-1.04.33-1.47,2.62-2.17,4.01,2.91,1.32,5.81,2.7,8.75,3.96,2.09.89,4.24,1.61,6.37,2.41-.85,2.22-1.41,4.63-2.6,6.65-10.57,17.82-21.33,35.52-31.85,53.36-2.8,4.75-4.2,10.55-7.74,14.52-1.38,1.55-8.7.77-10.27-1.28-10.48-13.66-20.15-27.94-30.02-42.07-.69-.98-1.51-3.01-1.1-3.46,13.75-14.74,15.81-32.87,15.17-51.75-.12-3.65-.91-7.27-1.39-10.91-2.94,3.23-6.3,6.18-8.73,9.76-3.53,5.21-6.75,10.71-9.44,16.4-2.61,5.51-4.43,11.4-6.5,17.15-1.53,4.26-1.97,9.39-4.73,12.52-1.33,1.51-7.79.53-10.35-1.41-10.93-8.26-18.15-18.73-16.22-33.49.05-.38-3.14-1.82-4.66-1.61-1.81.24-3.63,1.51-5.12,2.72-2.36,1.91-4.46,4.15-6.66,6.25-.7-2.52-1.48-5.03-2.07-7.58-1.05-4.53-1.56-9.23-3.06-13.6-3.77-10.99,4.91-13.28,11.52-15.12,24.13-6.72,47.94-16.58,73.73-12.86,8.36,1.2,16.14,5.98,24.44,8.16,4.9,1.29,10.29.84,15.46.91,17.3.24,34.62-.09,51.86,1,2.59.16,4.78,6.69,9.49,13.81Z" style="fill:#fff;"/><path d="m466.37,90.28c-1.53,11.16-4.16,22.31-4.13,33.47.01,5.86,4.78,11.67,7.19,17.59.8,1.96,1.72,4.46,1.11,6.2-.4,1.16-3.36,1.87-5.24,2.03-14.18,1.21-28.52,1.33-42.49,3.67-7.26,1.22-13.76,6.54-20.84,9.43-3.35,1.37-7.24,1.39-10.89,2.02.82-3.17,1.57-6.37,2.46-9.52,1.87-6.67,3.89-13.3,5.71-19.99,4.11-15.03,7.56-30.27,12.35-45.09,4.68-14.46,9.96-28.83,16.35-42.6,4.21-9.07,10.76-17.07,16.46-25.43,2.83-4.16,6.04-8.07,9.2-11.99.56-.69,2.27-1.47,2.52-1.24,1.94,1.84,4.37,3.65,5.23,5.99.92,2.48.22,5.54.35,8.34,1.09,22.31,2.22,44.62,3.33,66.92.44.06.88.13,1.32.19Z" style="fill:#fff;"/><path d="m559.55,61.8c2.42,8.49,4.95,16.96,7.23,25.48,1.85,6.91,4.25,13.82,4.88,20.86.97,10.94.64,21.99.84,32.99.02,1.05.03,2.11-.12,3.15-.67,4.82-1.4,9.63-2.1,14.45-7.33-1.43-14.61-3.44-22.02-4.15-7.84-.75-15.8-.54-23.7-.27-7.23.25-14.45,1.13-21.67,1.74.42-3.45-.23-7.57,1.44-10.24,6.44-10.29,14.57-19.62,20.18-30.3,3.3-6.26,3.09-14.38,4.39-21.68,3.26-18.24,6.13-36.57,10.03-54.68.7-3.27,5.58-5.64,8.53-8.43,2.99,3.99,6.95,7.6,8.74,12.07,2.35,5.89,3,12.46,4.39,18.73-.35.09-.69.18-1.04.26Z" style="fill:#fff;"/><path d="m510.41,48.93c3.12-3.78,5.22-6.34,7.33-8.9,2.38,2.55,6.92,5.34,6.67,7.61-.49,4.61-3.57,8.94-5.58,13.39-2.49-3.58-4.98-7.15-8.42-12.11Z" style="fill:#fff;"/><path d="m518.07,105.63c-2.66,8.03-4.62,14.6-7.21,20.91-.31.75-4.03.11-6.16.11.29-1.45.49-2.92.89-4.34,1.43-5.11,2.69-10.29,4.54-15.24.6-1.6,2.76-3.46,4.35-3.6,1.48-.13,3.14,1.86,3.58,2.16Z" style="fill:#fff;"/><path d="m3246.47,491.41c-19.67-5.38-39.17-11.51-59.06-15.92-16.24-3.61-32.11-7.9-49.42,1.24-8.21,4.34-21.31-.53-32.19-1.27-11.91-.8-17.74-7.8-15.21-18.9,2.98-13.07,6.78-26.44,13.29-37.95,2.08-3.67,14.07-2.86,21.24-1.91,2.31.31,5.12,7.6,5.18,11.74.1,7.48-1.77,14.98-2.59,22.5-.09.86,1.3,2.7,1.94,2.67,2.72-.11,7.31-.02,7.83-1.33,3.36-8.55,8.65-12.46,18.15-11.21,2.25.3,6.64-2.51,7.1-4.56.85-3.72-.5-7.95-.93-11.97-2.99,1.27-5.97,2.59-8.99,3.79-1.48.59-3.05.96-4.58,1.43.49-1.51.75-3.15,1.52-4.5,5.47-9.65,10.38-19.72,16.84-28.67,3.62-5.03,9.64-10.95,14.96-11.35,4.71-.36,12.06,5.33,14.47,10.21,3.28,6.64,2.63,15.13,4.34,22.67.88,3.86,3.5,7.3,4.79,11.11.41,1.21-.65,3.17-1.49,4.49-.83,1.3-2.65,2.06-3.24,3.41-.37.84.63,3.28,1.21,3.34,1.92.22,3.94-.21,5.88-.58,1.35-.26,2.63-.84,3.94-1.28.43,1.43,1.56,3.09,1.18,4.25-1.48,4.49-3.56,8.77-5.16,13.23-.41,1.15-.38,3.4.3,3.83,2.25,1.45,4.87,2.35,7.44,3.21.13.04.96-2.32,1.61-3.48,4.19-7.49,2.53-20.04,16.86-18.71,6.52.6,13.2-.32,19.69.43,1.85.22,3.02,4.2,4.96,5.96,8.4,7.63,18.4,14.06,24.83,23.06,2.89,4.05-1.19,13.1-2.2,19.87-.18,1.2-1.41,2.43-1.21,3.45.66,3.33,2.69,6.61,2.53,9.83-.71,14.49-1.47,29.02-3.24,43.41-1.24,10.06-4.07,19.92-6.41,29.82-.23.96-2.43,1.32-2.97,2.35-1.43,2.7-2.63,5.56-3.58,8.46-1.05,3.21-2.22,6.5-2.44,9.82-.41,6.11.12,12.29-.32,18.4-.18,2.53-1.83,4.95-2.81,7.43-2.81-1.56-6.67-2.43-8.24-4.81-6.69-10.16-12.98-20.62-18.82-31.29-1.92-3.5-1.81-8.06-2.98-12.03-2.34-7.98-4.59-16.01-7.49-23.79-4.02-10.77-8.3-21.47-13.05-31.94-3.54-7.82-8.36-15.08-11.63-23-.44-1.08,4.54-5.76,7.57-6.48,2.76-.66,6.21,2.49,9.45,2.72,14.8,1.07,29.62,1.98,44.45,2.31,4.18.09,8.45-1.85,12.59-3.15.67-.21,1.38-2.06,1.14-2.89-.18-.65-1.79-1.26-2.78-1.27-7.73-.1-15.46-.06-23.18-.06-.36,1.28-.72,2.56-1.08,3.84Z" style="fill:#fff;"/><path d="m3106.68,541.69c-3.22-16.64-6.51-33.27-9.57-49.93-.33-1.82.48-5.48,1.05-5.54,2.28-.24,5.01.02,6.95,1.16,5.73,3.4,8.23,13.88,18.27,7.39,7.91-5.11,15.76-11.08,24.53-13.88,7.73-2.47,16.7-1.39,25.08-.94.81.04,2.74,7.35,1.57,10.25-2.68,6.65-6.99,12.65-10.54,18.96-.77,1.38-1.44,2.93-1.67,4.47-1.21,8.21-2.18,16.45-3.47,24.64-.16,1.01-1.71,1.8-2.62,2.69-.87-1.13-1.91-2.17-2.56-3.42-.94-1.81-1.59-3.77-2.37-5.67-1.62,2.46-4.94,5.2-4.58,7.34,3.6,21.55,8.75,42.88,11.37,64.53,1.02,8.44-3.15,17.55-5.23,26.29-.25,1.03-2.22,1.66-3.4,2.47-.75-1.44-1.4-2.94-2.27-4.3-2.07-3.23-4.27-6.37-6.35-9.6-4.12-6.39-8.46-12.66-12.21-19.26-5.61-9.86-11.51-19.67-15.93-30.07-3.67-8.61-5.38-18.04-7.96-27.11.64-.16,1.28-.31,1.91-.47Z" style="fill:#fff;"/><path d="m369.26,581.72c-3.73-23.38-7.07-46.83-11.43-70.1-1.43-7.64-3.54-18.11-8.92-21.35-7.81-4.71-19.24-6.24-28.38-4.7-4.39.74-7.73,11.35-10.4,17.95-6.22,15.43-11.91,31.07-17.47,46.75-2.1,5.92-3.17,12.21-4.87,18.28-1.9,6.79-4.42,13.45-5.8,20.33-.93,4.63.84,10.05-.82,14.22-1.63,4.09-6.09,7.07-9.3,10.53-2.86-4.32-6.79-8.28-8.36-13.02-4.55-13.76-8.45-27.75-12.01-41.8-1.95-7.67-2.44-15.69-4.1-23.45-1.23-5.73-4.6-11.27-4.69-16.93-.24-14.38.63-28.79,1.78-43.13.09-1.09,5.91-2.55,9.01-2.42,16.31.68,34.01,6.34,48.6,1.81,27.24-8.47,54.32-8.5,81.88-8.49,7.96,0,15.96.53,23.87-.11,7.67-.62,10.56,1.97,9.69,9.66-2.34,20.71-3.12,41.69-7.06,62.07-2.16,11.13-9.77,21.14-14.4,31.88-4.82,11.17-8.73,22.74-13.68,33.85-1.29,2.9-5.06,6.61-7.56,6.52-2.46-.09-6.4-4.3-6.81-7.13-1-6.87-.32-13.98-.32-21,.53-.09,1.05-.18,1.58-.28Z" style="fill:#fff;"/><path d="m377.1,459.14c-10.7,0-21.54-1.11-32.06.26-15.7,2.04-31.06,7.19-46.77,8.46-13.86,1.12-28.19-.21-41.96-2.56-6.54-1.12-12.22-7.16-18.3-10.98,3.55-5.24,6.45-11.09,10.8-15.55,5.24-5.37,11.5-9.85,17.76-14.05,2.01-1.35,5.43-.85,8.2-.76,8.44.26,17.2,2.2,25.15.42,3.44-.77,5.51-8.93,7.62-13.98,4.87-11.64,9.24-23.49,14.12-35.13,2.34-5.57,4.92-11.15,8.25-16.15,1.84-2.78,5.37-5.97,8.28-6.1,3.22-.15,7.34,2.27,9.74,4.81,7.15,7.59,15.56,14.88,19.88,23.99,4.4,9.28,19.47,12.09,15.22,26.7-1.36,4.68,1.56,10.76,3.12,16.03.47,1.57,3.06,3.62,4.52,3.5,1.83-.15,4.51-1.99,5.02-3.66,1.26-4.14,2.74-8.88,1.83-12.85-1.09-4.79-7.37-12.28-6.55-12.99,5.32-4.59,11.98-10.29,18.16-10.24,3.82.03,9.01,9.08,11.04,14.95,4.1,11.89,6.46,24.37,9.56,36.6,1.03,4.07-10.94,19.27-15.21,19.27-12.47,0-24.94,0-37.42,0Z" style="fill:#fff;"/><path d="m3266.61,121.59c0,11.4.36,22.83-.3,34.19-.13,2.29-4.19,6.27-6.36,6.21-20.4-.55-40.81-1.39-61.15-3.08-6.86-.57-17.83-2.15-19.35-6.15-3.42-8.96-2.75-19.75-2.42-29.75.17-5.05,3.88-9.89,4.83-15.04,1.58-8.59,1.43-17.54,3.46-25.99,2.53-10.51,6.5-20.67,9.99-30.94.21-.63,2.11-1.4,2.52-1.11.99.7,2.13,1.94,2.2,3.04,1.21,17.17,1.61,34.42,3.53,51.51,1.71,15.28,4.69,30.77,18.3,40.65,3.2,2.33,9.28,3.14,12.91,1.74,3.25-1.26,6.45-6.28,7.07-10.06,3.73-22.77,6.64-45.68,10.12-68.5.18-1.2,3.82-3.19,4.46-2.76,2.63,1.77,6.41,4.12,6.73,6.64,2.07,16.37,3.34,32.84,4.88,49.28-.47.04-.94.09-1.42.13Z" style="fill:#fff;"/><path d="m3180.32,190.88c2.39-3.88,4.64-8.33,7.7-12.12,1.31-1.62,4.44-2.71,6.51-2.41,1.1.16,1.46,3.94,2.57,5.83,1.29,2.19,3.05,4.1,4.61,6.13,1.87-1.84,4.6-3.35,5.46-5.58,3.04-7.87,4.87-14.58,16.76-13.79,22.12,1.47,22.05.43,23.95,22.48.2,2.27,3.38,4.29,5.18,6.43,1.61-2.09,4.06-3.97,4.66-6.32,1.61-6.34,2.36-12.9,3.66-19.33.19-.93,2.15-2.4,2.26-2.31,2.09,1.63,5.06,3.09,5.82,5.29,5.88,16.99-8.22,35.98-25.77,34.23-5.93-.59-11.98-6.39-17.29-5.53-10.04,1.62-19.42,7.04-29.43,9.33-3.23.74-8.91-2.48-11.08-5.57-2.89-4.11-3.45-9.87-5.58-16.75Z" style="fill:#fff;"/><path d="m3227.36,108.87c1.45,4.32,3.08,7.98,3.85,11.82.55,2.78.79,7.89-.28,8.31-3.5,1.39-7.7,1.51-11.55,1.21-1-.08-2.18-3.45-2.5-5.43-1.26-7.96-3.96-16.22-2.9-23.92,2.02-14.56,6.22-28.82,9.76-43.14.15-.6,3.78-1.18,3.99-.8,3.65,6.81,7.76,13.53,10.22,20.79,2.13,6.28,2.67,13.19,3.07,19.88.08,1.42-4.55,4.77-5.3,4.33-12.64-7.42-4.39,5.21-8.35,6.95Z" style="fill:#fff;"/><path d="m3347.89,543.27c-2.89,14.25-5.49,28.57-8.96,42.67-.59,2.39-4.93,3.86-7.54,5.75-1.31-2.03-3.41-3.92-3.8-6.12-1.42-7.98-3.01-16.04-3.19-24.1-.44-20.18,1.28-40.52-.65-60.52-1.21-12.53.15-15.5,11.78-9.65,1,.5,2.83-.66,4.28-1.04-.6-1.21-1.52-2.36-1.72-3.63-.46-2.86-.04-5.95-.93-8.63-2.13-6.44-4.8-12.71-7.28-19.04-.5-1.27-1.77-3.49-1.62-3.59,11.22-7.01,22.13-14.78,34.14-20.05,3.13-1.37,12.18,4.04,13.97,8.25,1.64,3.86-3.16,10.25-4.55,15.67-1.14,4.43-1.96,9.08-1.87,13.61.04,2.26,2.44,4.47,3.78,6.71-3.63,1.61-7.14,3.74-10.93,4.69-4.68,1.17-9.64,1.18-14.4,2.1-1.01.2-1.69,2.15-2.52,3.29,1.47.62,2.97,1.84,4.4,1.76,17.49-.91,35.19-.66,52.39-3.44,16.13-2.61,18.56,8.5,18.36,17.86-.44,20.45-3.56,40.86-6.07,61.22-.76,6.18-2.86,12.26-4.87,18.2-.78,2.31-2.99,4.14-4.55,6.19-1.75-3.55-4.87-7.07-4.96-10.66-.14-5.92,2.45-11.88,2.47-17.82.02-5.76-1.95-11.5-2.66-17.3-.37-3.04,1.09-8.43.01-8.91-8.58-3.79-7.38-8.4-4.01-15.57.98-2.09-4.51-8.86-8.42-11.17-4.32-2.55-10.18-2.65-15.43-3.44-12.38-1.87-26.91,10.68-26.91,23.05v13.16c.75.17,1.5.33,2.25.5Z" style="fill:#fff;"/><path d="m3403.62,481.24c-4.48,0-6.81.31-9.02-.07-3.28-.57-6.48-1.63-9.71-2.49,3.12-.97,6.73-1.29,9.19-3.14,1.54-1.15,2.01-4.68,1.73-7-.27-2.26-2.46-4.23-3.14-6.52-.7-2.37-1.23-6.99-.72-7.16,3.43-1.11,8.16-2.92,10.6-1.43,5.82,3.52,13.38,7.82,15.26,13.46,4.9,14.7-5.05,16.14-14.19,14.35Z" style="fill:#fff;"/><path d="m727.35,104.29c0,4.39-.42,8.82.09,13.14,1.11,9.4-.77,15.52-12.22,13.42-.96-.17-2.23,1.37-3.35,2.11,2.72,3.76,5.36,7.58,8.21,11.25,1.1,1.42,3.42,2.32,3.76,3.78.3,1.29-1,3.68-2.28,4.45-3.13,1.87-6.65,3.08-10.01,4.55,3.67,2.02,7.38,3.99,11.01,6.09,1.57.91,4.36,2.84,4.24,3.07-1.58,3-3.06,6.41-5.57,8.5-7.37,6.13-15.18,11.74-22.87,17.49-.87.65-2.67,1.57-2.95,1.29-1.87-1.87-4.18-3.81-4.93-6.17-.87-2.72.06-5.96-.47-8.85-.24-1.29-2.16-3.19-3.27-3.16-1.21.03-3.45,2.05-3.38,3.08.66,10.59,3.01,21.25,2.25,31.7-.67,9.3-4.64,18.37-7.22,27.53-.31,1.08-.96,2.08-1.54,3.07-1.96,3.32-3.96,6.62-5.94,9.92-2.95-2.73-7.96-5.09-8.51-8.24-2.92-16.65-5.14-33.47-6.55-50.31-.3-3.64,6.11-8.2,5.36-11.38-5.27-22.41,15.18-6.2,20.98-13.77,3.29-4.29,14.23-2.71,21.71-3.89.74-.12,1.99-1.43,1.91-1.58-.95-1.72-1.77-4.1-3.3-4.75-1.86-.8-4.43-.49-6.55-.01-14.62,3.27-28.75,9.45-43.55-1.7-5.58-4.2-15.63-6.89-20.22,4.59-.53,1.32-3.34,2.65-4.83,2.4-1.35-.23-3.27-2.56-3.34-4.04-.35-7.7.16-15.45-.29-23.14-.54-9.28-2.95-18.59-2.39-27.75.93-15.19,3.59-30.26,5.53-45.39,2.75.66,6.93.47,7.95,2.17,2.19,3.64,2.47,8.36,4.03,12.45,4.75,12.46,9.56,24.9,14.7,37.2,4.04,9.68,7.49,19.96,13.54,28.28,2.13,2.93,13.09,3.25,16.66.46,5.71-4.45,9.3-12.17,12.58-19.08,6.67-14.06,12.65-28.45,18.64-42.82.95-2.29-.05-5.35.78-7.74.56-1.63,2.6-3.53,4.2-3.76,1.21-.17,3.77,1.94,4.01,3.34,1.85,10.62,3.28,21.32,4.84,31.99l-1.4.2Z" style="fill:#fff;"/><path d="m643.95,189.46c-9.02-7.13-14.56-11.51-20.1-15.88,5.27-2.46,10.43-6.49,15.85-6.89,4.7-.34,9.7,3.44,14.56,5.4-2.81,4.73-5.63,9.47-10.32,17.37Z" style="fill:#fff;"/><path d="m2909.23,110.75c0,14.21.12,28.42-.14,42.63-.04,1.9-1.84,5.27-3.11,5.41-12.93,1.44-25.94,2.09-38.86,3.6-2.93.34-5.55,3.2-8.32,4.9,2.3.69,4.72,2.25,6.87,1.93,11.39-1.69,22.67-4.28,34.1-5.55,2.87-.32,7.97,2.47,8.81,4.94,1.28,3.73,1.18,9.44-.95,12.5-3.65,5.23-9.29,9.11-14.18,13.45-1.03.91-2.46,1.38-3.71,2.05-.59-1.73-1.39-3.42-1.74-5.2-.66-3.33-.47-6.99-1.9-9.89-.46-.94-6.66-.77-7.19.34-2.1,4.4-3.45,9.3-4.21,14.15-.66,4.24.15,8.68-.23,12.98-.88,10.01-1.91,20.01-3.32,29.95-.28,1.95-2.86,5.27-3.85,5.09-2.77-.51-6.77-1.91-7.63-4.04-4.72-11.63-9.62-23.36-12.42-35.52-1.33-5.78,2.04-12.57,2.82-18.96.16-1.28-1.78-2.81-2.75-4.22-1.48,1.36-3.47,2.45-4.33,4.13-1.91,3.69-3.24,7.67-4.81,11.54-7.65-5.07-16.91-8.91-22.2-15.79-2.37-3.08,3.29-12.26,5.19-18.7.27-.91.31-2.36-.22-2.95-10.11-11.16-6.08-23.23-3.08-35.62.98-4.04-1.68-8.82-1.57-13.23.15-6.12,1.44-12.21,2.05-18.33.26-2.61-.27-5.31.13-7.88.49-3.19,1.57-6.29,2.4-9.44,3.06,2.73,7.53,4.91,8.86,8.32,2.26,5.77,2.17,12.41,3.71,18.52,2.62,10.35,5.74,20.58,8.64,30.86.33,1.16.61,2.34.75,3.53.55,4.67,1.03,9.34,1.53,14.01,8.32-1.45,16.58-3.38,24.96-4.24,17.23-1.78,14.98-18.37,20.67-28.17,5.22-8.99,4.91-21.1,7.52-31.71,1.84-7.48,4.41-14.79,6.86-22.11.24-.73,1.92-.97,2.93-1.44.64,1.49,1.83,2.98,1.84,4.48.14,14.56.08,29.12.11,43.68Z" style="fill:#fff;"/><path d="m313.33,151.37c-8.51,1.49-16.97,3.65-25.54,4.23-5.16.35-10.48-2.52-15.74-2.56-5.07-.03-10.13,1.76-15.22,2.68-13.09,2.37-12.5-10.15-11.86-15,2.56-19.29,7.23-38.35,11.92-57.29,2.25-9.08,6.23-17.75,9.61-26.54.57-1.48,2.02-2.63,3.07-3.93,1.75,1.97,4.85,3.84,5.01,5.93.65,8.72.05,17.52.59,26.25.74,11.99,1.82,23.98,3.35,35.9.46,3.58,2.88,6.91,4.41,10.36,1.85-1.8,3.97-3.42,5.36-5.53.34-.52-2.77-2.88-2.49-3.93,1.35-5.17,3.3-10.19,5.04-15.26,2.21,3.42,4.83,6.65,6.55,10.3,5.36,11.35,4.58,19.73-10.79,20.33-.57.02-1.67,2.4-1.54,2.52,1.84,1.56,3.74,3.9,5.85,4.15,14.59,1.71,18.54-5.23,20.41-25.1,1.91-20.24,5.77-40.3,9.28-60.36.56-3.19,3.74-5.92,5.71-8.86,1.93,3.63,5.02,7.09,5.59,10.92,3.56,24.29,7.09,48.61,9.56,73.03,1.75,17.36-1.58,19.2-28.12,17.77Z" style="fill:#fff;"/><path d="m335.24,180.17c.27,16.37-5.96,29.69-20.37,37.62-2.86,1.57-9.01-2.6-13.56-4.33-8.8-3.34-9.21-19.88-22.1-15.53-7.51,2.53-13.56,9.16-20.63,13.33-1.69,1-6.66.18-7.05-.92-3.83-10.53-8.31-21.12-9.81-32.07-.73-5.38,4.36-11.58,7.02-17.32.28-.62,1.9-.95,2.85-.87,11.71.93,23.44,2.93,35.11,2.63,8.56-.22,17.35-2.59,25.48-5.54,7.05-2.56,22.98,5.53,23.06,13.03.04,3.33,0,6.66,0,9.99Z" style="fill:#fff;"/><path d="m307.73,72.59c-1.8,4.65-3.31,8.78-5.08,12.79-.24.54-1.8.5-2.75.73-.59-3.44-2.24-7.13-1.5-10.26.86-3.66,3.81-6.83,5.85-10.22,1.13,2.26,2.27,4.53,3.48,6.95Z" style="fill:#fff;"/><path d="m116.46,478.93c33.01,0,61.85-.66,90.58.77,3.96.2,9.54,10.43,10.59,16.65,1.78,10.53,2.02,21.82.23,32.33-2.53,14.9-7.42,29.41-11.78,43.94-.13.44-7.33.25-8.19-1.31-2.27-4.12-3.22-9.1-4.07-13.85-3.36-18.67-5.53-37.62-10.33-55.9-1.23-4.69-10.38-9.68-16.12-9.98-3.96-.2-10.63,6.75-12.11,11.69-5.3,17.79-8.7,36.13-13.28,54.15-1.46,5.77-4.13,11.27-6.73,16.67-.54,1.12-3.46,1.93-4.9,1.52-1.28-.36-1.94-2.68-3-4.03-2.21-2.82-4.52-5.57-6.78-8.37-.9-1.12-2.42-2.21-2.54-3.43-1.25-12.77-2.23-25.56-3.37-38.34-.88-9.88-2.77-19.78-2.48-29.61.17-5.77,3.73-11.44,4.26-12.91Z" style="fill:#fff;"/><path d="m218.67,454.87c-2.52,18.82-7.38,21.12-23.45,17.99-20.09-3.91-41.59-2.13-62.32-.66-11.46.81-16.94-7.58-17.04-13.18-.11-5.94,8.04-12.29,13.18-17.92,1.76-1.92,5.25-2.54,8.08-3.09,1.4-.27,3.09.99,4.64,1.56-.62,1.26-1.89,2.59-1.75,3.75.79,6.58,1.85,13.14,3.16,19.64.07.33,4.35.7,4.84-.09,1.93-3.13,3.48-6.6,4.55-10.13,3.58-11.85,6-24.16,10.8-35.48,1.62-3.82,8.84-5.96,13.9-7.16,1.21-.29,3.52,6.76,6.24,9.53,6.2,6.3,13.16,11.84,19.44,18.06,5.51,5.46,10.5,11.43,15.73,17.17Z" style="fill:#fff;"/><path d="m3039.07,481.75c-19.7-1.26-39.41-2.34-59.04-4.23-1.09-.1-3.36-7.81-1.99-10.28,8.52-15.44,17.84-30.45,27.15-45.45.93-1.5,3.54-2.61,5.42-2.7,1.93-.08,5.38,1,5.63,2.13,1.14,5.06,3.01,10.86,1.52,15.38-1.7,5.14-7.94,8.75-9.79,13.89-1.18,3.28,2.02,8.14,3.26,12.29,4.22-2.45,8.52-4.77,12.61-7.42,1.94-1.26,4.31-4.85,5.01-4.5,3.6,1.84,8.23,3.97,9.62,7.23,1.64,3.85.02,8.98.49,13.48.16,1.48,2.22,3.07,3.78,4.03,2.77,1.72,5.81,3.01,8.74,4.48-3.1,1.44-6.17,2.97-9.33,4.26-.9.37-2.08.06-3.14.06.02-.88.04-1.77.06-2.65Z" style="fill:#fff;"/><path d="m2988.75,489.64c5.13-1.38,10.29-3.85,15.39-3.74,3.19.07,9.34,4.9,9,6.06-3.94,13.27-9.18,26.15-13.44,39.33-2.32,7.17-3.35,14.75-5.16,22.1-.31,1.26-1.65,2.26-2.52,3.38-.95-1.25-2.38-2.36-2.77-3.76-5.28-19.34-10.87-38.64-14.96-58.24-.45-2.15,7.95-6.13,12.25-9.26l2.21,4.13Z" style="fill:#fff;"/><path d="m3028.32,534c-1.32-8.69-3.53-17.38-3.64-26.09-.08-6.3,1.56-17.43,4.3-18.04,7.5-1.67,16.02.91,23.97,2.6.38.08-1.99,8.03-1.16,11.9,3.39,15.9-8.38,26.9-12.01,40.43-1.8,6.72-.52,14.23-.98,21.36-.14,2.15-1.4,4.24-2.14,6.36-2.11-1.99-5.63-3.71-6.09-6.03-2.09-10.61-3.33-21.4-4.88-32.12.87-.12,1.75-.24,2.62-.36Z" style="fill:#fff;"/><path d="m843.22,113.91c2.87-10.29,5.7-20.59,8.73-30.83.22-.74,2.35-1.72,2.78-1.43.98.69,1.91,2.03,2.07,3.21,2.28,16.73,4.57,33.45,6.54,50.22.58,4.98,2.1,11.5-.29,14.79-3.18,4.37-9.45,7.63-14.96,8.9-6.51,1.5-13.62.22-20.47.43-2.77.09-5.52.93-8.28,1.44.96,1.71,1.67,4.65,2.92,4.9,3.25.66,6.75.26,10.14.06,10.69-.61,21.37-1.38,32.06-1.78.57-.02,2.18,3.28,1.7,4.23-1.24,2.46-2.96,5.1-5.21,6.55-16.06,10.37-29.72,22.5-35.9,41.56-2.33,7.2-6.48,13.84-10.16,20.54-.54.99-4.05,1.71-4.58,1.12-2.37-2.63-5.19-5.54-5.94-8.78-1.75-7.55-4.47-15.78-3-22.95,1.97-9.59,7.64-18.39,11.45-27.64.71-1.72.09-3.97.09-5.98-3.2.02-6.41.02-9.61.09-.19,0-.38.56-.54.87-10.59,20.04-17.71,1.37-25.91-2.66-.85-.42.37-4.75.4-7.27.04-3.7-.39-7.42-.15-11.11.25-3.87,1.25-7.69,1.57-11.57,1.17-14.36,1.67-28.81,3.55-43.07.7-5.35,4.4-10.34,6.93-15.39.28-.56,2.32-1,2.68-.64.89.89,1.6,2.23,1.81,3.48,1.16,7.21,2.28,14.44,3.13,21.69.26,2.18.48,5.51-.76,6.53-7.09,5.84-7.46,10.45,1.33,14.73,1.1.53,1.54,2.4,2.29,3.64-1.45.7-3.41,1.02-4.23,2.17-1.53,2.14-2.66,4.67-3.49,7.19-1.28,3.85-1.89,7.94-3.35,11.7-.73,1.89-3.71,3.22-3.85,4.94-.14,1.69,1.76,3.93,3.36,5.16.58.45,2.82-1.82,4.4-2.02,4.47-.57,8.99-.65,13.48-1.04,1.44-.12,2.85-.6,4.28-.91-.66-1.24-1.47-2.42-1.97-3.72-1.23-3.21-2.32-6.48-3.47-9.73,2.6,1.4,5.25,4.04,7.78,3.93,4.65-.2,9.34-1.72,13.8-3.3,1.73-.61,2.72-4,4.3-4.2,17.98-2.37,13.73-16.18,12.57-28.03Z" style="fill:#fff;"/><path d="m1473.21,121.65c2.53-10.48,6.47-20.65,7.08-31.03.7-11.72-2.34-23.61-2.35-35.43-.01-9.63,1.88-19.29,3.41-28.85.14-.9,5.07-2.3,5.54-1.71,8.41,10.6,16.64,21.36,24.37,32.46.94,1.35-1.56,4.85-1.98,7.43-.49,3.03-1.59,8.3-.46,8.91,16.48,8.77,1.43,21.01,4.08,29.86,2.47,8.26-5.33,21.68,9.58,26.05,2.43.71,4.71,7.27,4.23,10.74-.34,2.47-5.4,4.32-8.38,6.41-2.19,1.54-4.42,3.03-6.63,4.54,1.42.99,3.02,1.79,4.22,3,2.75,2.77,5.34,5.7,7.82,8.71.14.17-1.53,2.51-2,2.39-3.77-.95-7.52-2.1-11.16-3.47-7.64-2.86-15.28-5.75-22.76-8.98-1.62-.7-3.72-2.92-3.67-4.39.13-4.45.9-8.94,2.02-13.26.82-3.16,3.9-6.22,3.58-9.07-.31-2.78-3.65-5.22-5.66-7.8-1.4,3.39-2.74,6.8-4.24,10.15-.82,1.82-1.92,3.52-2.89,5.27-1.21-3.86-2.42-7.72-3.75-11.94Z" style="fill:#fff;"/><path d="m1477.17,245.33c2.59-20.11,5.84-36.17,6.16-52.29.13-6.77-6.15-13.57-9.07-20.54-1.13-2.68-2.35-7.7-1.26-8.48,3.11-2.23,7.97-4.68,11.11-3.72,10.7,3.27,21.02,7.8,31.35,12.19,6.85,2.91,11.55,22.6,7.97,29.73-2.42,4.81-2.88,10.71-5.72,15.17-2.18,3.43-6.69,5.38-10.16,7.99-1.42-2.23-3.73-4.35-4.03-6.72-.33-2.64,1.17-5.5,1.87-8.27-1.52-.2-3.96-1.07-4.4-.47-2.06,2.8-5.01,6.01-4.99,9.06.05,6.59,3.45,13.51,2.24,19.66-1.22,6.2-6.15,11.77-9.97,17.27-.73,1.05-5.15,1.25-5.6.5-2.7-4.53-4.74-9.45-5.51-11.09Z" style="fill:#fff;"/><path d="m2721.28,185.69c2.66,5.24,7.62,10.35,6.97,14.6-1.88,12.31-5.78,24.35-9.62,36.26-.4,1.24-6.79,2.35-8.46,1.04-4.53-3.53-8.88-7.91-11.76-12.84-6.75-11.59-12.16-23.96-19-35.49-3.23-5.45-9.46-9.18-12.39-14.72-1.18-2.23,1.93-9.31,4.64-10.43,4.26-1.77,10.7-2.02,14.69.03,9.06,4.67,16.68,1.87,25.85.53,14.84-2.17,30.44.79,45.72,1.59-1.08,4.96-1.75,10.07-3.45,14.81-.59,1.63-4.42,1.85-5.64,3.53-6.25,8.64-10.77,7.74-15.45-1.53-1.2-2.38-5.33-3.28-8.11-4.86-1.23,2.3-2.46,4.61-3.99,7.48Z" style="fill:#fff;"/><path d="m2696.07,147c-1.05-3.27-2.09-6.53-3.14-9.8-2.74,5.19-5.48,10.38-8.22,15.57-1.09,2.07-2.41,6.03-3.17,5.92-5.82-.83-11.55-2.35-17.16-4.14-.25-.08.9-4.84,1.56-7.37,2.26-8.7,4.72-17.36,6.88-26.09,3.37-13.63,6.57-27.3,9.84-40.95,2.47.65,6.54.62,7.14,2.05,3.02,7.23,5.92,14.69,7.38,22.34,2.67,14.03,4.48,28.24,6.25,42.42.46,3.66-.36,7.55-1.17,11.2-.12.54-4.89.92-5.07.44-1.37-3.57-2.12-7.37-3.07-11.09.65-.17,1.3-.35,1.95-.52Z" style="fill:#fff;"/><path d="m2717.42,153.34c4.02-9.14,7.57-16.72,10.72-24.45,4.92-12.08,9.33-24.38,14.52-36.34,1.4-3.23,4.81-5.59,7.3-8.35,2.49,2.75,7.05,5.43,7.15,8.27.65,18.33.41,36.7.19,55.05-.02,1.73-1.95,3.44-2.99,5.16-1.85-1.25-3.58-2.73-5.58-3.67-1.31-.62-3.14-.95-4.47-.54-7.57,2.35-15,5.17-22.63,7.28-1.33.37-3.4-1.91-4.2-2.4Z" style="fill:#fff;"/><path d="m1998.17,190.9c1.2-7.12.07-18.13,4.09-20.53,8.21-4.91,19.14-5.58,29.07-7.21,4.33-.71,11.24-1.17,12.98,1.19,3.14,4.27,4.75,10.87,4.28,16.26-.54,6.11-3.97,12.01-6.47,17.85-.22.52-3.43.61-4.3-.16-2.38-2.13-4.25-4.83-6.33-7.31-1.5,3.76-4.28,7.62-3.99,11.23.15,1.91,5.98,2.99,8.65,5.17,3.55,2.89,7.88,5.94,9.45,9.89,2.96,7.4,5.44,15.44,5.75,23.31.27,6.88-2.71,13.88-4.26,20.83-1.88-.64-4.48-.71-5.54-2.02-7.72-9.51-16.22-18.67-22.1-29.25-2.39-4.31,1.45-11.88,1.79-18.01.1-1.79-2.09-3.71-3.23-5.56-2.27,1.66-4.98,2.97-6.69,5.09-1.59,1.97-2.11,4.8-3.1,7.25-2.96-3.49-7.42-6.58-8.52-10.58-1.48-5.38-.37-11.47-.37-17.25l-1.19-.17Z" style="fill:#fff;"/><path d="m2033.18,156.02c-9.21-.58-16.28-2.77-15.08-14.91.96-9.68.16-19.54.15-29.32,0-3.95,0-7.9-.03-11.85,0-.7.06-1.46-.18-2.08q-3.89-10.2,4.44-22.3c4.8-6.93,9.77-13.74,14.5-20.71.59-.86.71-2.73.17-3.57-8.62-13.27,7.16-15.31,10.7-22.94.05-.1,4.04,1.2,3.99,1.54-1.47,10.46-3.22,20.89-4.96,31.32-.07.44-.72.81-.76,1.24-1.13,11.71-3.15,23.43-3.09,35.14.09,15.21,1.74,30.42,2.91,45.62.71,9.27-2.92,13.9-12.76,12.82Z" style="fill:#fff;"/><path d="m705.21,498.73c-1.87,10.53-4.17,23.69-6.67,36.82-.18.92-2.68,2.31-2.79,2.2-1.95-1.99-5.41-4.35-5.23-6.31,1.46-15.19-3.15-28.44-13.7-38.77-1.86-1.82-13.32,1.45-14.81,4.82-4.03,9.1-5.38,19.46-7.18,29.43-.94,5.2-.58,10.63-.81,15.95-1.52-.13-4.34-.16-4.36-.41-.46-5.68.16-11.56-1.05-17.04-1.18-5.33-5.34-10.08-6.14-15.39-1.6-10.56-1.8-21.32-2.58-32,3.75.35,7.5.74,11.25,1.03,13.28,1.02,26.55,2.38,39.85,2.89,12.92.5,14.21,1.37,14.21,16.8Z" style="fill:#fff;"/><path d="m704.67,461.94c-2.8,7.23-3.75,12.28-4.94,12.34-8.18.39-16.48.3-24.59-.75-6.07-.79-11.99-3.06-17.86-5.03-4.87-1.64-9.56-3.8-14.32-5.73,2.61-5.18,4.81-10.64,7.94-15.49,5.43-8.41,11.39-16.48,17.28-24.59.94-1.29,3.83-2.92,3.87-2.86,11.36,14.44,22.55,29.01,32.63,42.12Z" style="fill:#fff;"/><path d="m522.91,480.64c6.38,1.49,12.69,3.64,19.15,4.22,4.42.4,9.02-1.87,13.58-2.05,3.48-.14,9.38.2,10.07,1.96,2.06,5.23,3.22,11.37,2.64,16.94-.78,7.4-3.61,14.57-5.44,21.87-2.36,9.46-4.54,18.96-6.98,28.4-.19.73-2.57,1.7-2.75,1.49-1.88-2.07-4.69-4.21-5.02-6.63-1.53-11.13-2.05-22.39-3.57-33.52-.63-4.6-2.3-9.31-4.61-13.34-1.49-2.58-6.99-5.98-7.32-5.65-5,5-12.55,10.13-13.39,16.08-1.95,13.9-.3,28.26-.78,42.42-.17,5.03-2.16,10.02-3.58,14.95-.21.73-2.38,1.71-2.8,1.41-.97-.7-1.9-2.07-2-3.24-1.2-13.12-1.74-26.32-3.52-39.35-1.04-7.62-5.55-14.91-5.84-22.45-.85-22.09-.33-22.11,22.17-23.51Z" style="fill:#fff;"/><path d="m506.99,475.09c-1.29-2.86-3.73-6.98-4.88-11.44-.46-1.76,2.03-4.21,3.03-6.42,4.82-10.62,8.53-21.94,14.77-31.64,3.63-5.64,11.28-8.69,17.13-12.9,3.27,4.97,6.43,10.02,9.83,14.9,4.84,6.94,10.37,13.46,14.65,20.73,4.21,7.17,7.32,15,10.62,22.66.33.77-1.37,2.4-2.13,3.64-1.02-.94-1.91-2.12-3.1-2.76-4.07-2.22-8.07-5.02-12.46-6.03-2.17-.5-5.15,2.39-7.72,3.82-1.01.56-1.84,1.83-2.84,1.94-10.93,1.14-21.87,2.11-36.89,3.51Z" style="fill:#fff;"/><path d="m3389.95,134.52q0,28.42-28.53,27.77c-20.84-.48-27.43-7.61-27.83-28.5-.18-9.63-2.5-19.21-2.71-28.84-.08-3.6,3.08-7.27,4.77-10.91,1.55,1.96,3.6,3.71,4.57,5.93,5.15,11.69,8.93,24.15,15.42,35.02,3.84,6.43.91,19.65,13.85,18.11,3.19-.38,7.12-6.54,8.14-10.67,2.1-8.51,2.01-17.53,3.74-26.16.7-3.5,3.83-6.5,5.86-9.73.9,2.85,2.41,5.66,2.59,8.55.39,6.46.12,12.96.12,19.44Z" style="fill:#fff;"/><path d="m3392.95,184.35c1.64,14.59-6.24,22.6-17.49,27.83-2.49,1.16-7.54.34-9.39-1.54-2.36-2.41-3.74-6.86-3.62-10.37.21-6.07,2.09-12.07,2.78-18.15.14-1.21-2.03-3.91-2.86-3.81-3.49.45-8.17.65-10.01,2.9-3.42,4.18-4.84,9.94-7.82,14.57-.67,1.05-5.05,1.17-6.46.09-10.22-7.86-7.52-27.62,4.27-32.44,1.19-.49,2.8-.32,4.13-.07,10.24,1.95,20.43,5.42,30.69,5.63,11.86.24,18.41,3.05,15.77,15.36Z" style="fill:#fff;"/><path d="m3376.94,115.11c-3.5,5.17-5.86,8.68-8.23,12.18-1.12-3.39-2.21-6.79-3.38-10.16-.31-.88-.81-1.72-1.37-2.48-2.45-3.3-4.96-6.56-7.45-9.84,3.18-1.5,8.21-5.06,9.22-4.15,4.14,3.72,7.05,8.8,11.2,14.44Z" style="fill:#fff;"/><path d="m2891.09,478.06c-13.07,0-23.03.16-32.96-.24-1-.04-2.26-3.32-2.68-5.25-.33-1.53,1.29-3.84.61-4.86-8-12.09,4.95-17.73,8.45-25.94,2.88-6.76,9.21-12.15,14.41-17.77,1.2-1.3,4.08-1.57,6.08-1.35.83.09,2.07,2.78,1.94,4.18-1.41,16.14,6.37,28.67,15.22,41.04,1.64,2.29.91,6.49.75,9.78-.97,20.15-2.02,40.3-3.23,60.44-.19,3.08-1.13,6.18-2.26,9.06-.16.4-4.97-.21-5.04-.72-.57-4.04-.41-8.17-.67-12.27-.51-8.19-.65-16.45-1.86-24.54-1-6.71-3.53-13.19-4.85-19.88-.24-1.22,1.79-3.32,3.24-4.33,2.79-1.95,5.91-3.41,8.9-5.07-2.97-1.13-5.94-2.25-6.05-2.29Z" style="fill:#fff;"/><path d="m2857.43,484.18c5.2.49,10.31.71,15.27,1.69.86.17,1.95,3.8,1.47,5.39-2.94,9.64-5.62,19.49-10.02,28.47-1.08,2.2-8.9,3.09-12.47,1.68-7.93-3.13-11.23-28.23-4.69-33.68,2.59-2.16,6.79-2.38,10.44-3.55Z" style="fill:#fff;"/><path d="m2851.73,538.23c1.64-3.19,2.99-5.81,4.34-8.43,1.91,2.92,5.33,5.84,5.31,8.75-.02,2.92-3.46,5.82-5.4,8.73-1.34-2.86-2.68-5.71-4.25-9.04Z" style="fill:#fff;"/><path d="m2716.93,489.86c6.3-1.57,9.65-2.21,12.79-3.42.41-.16.02-4.55-.5-4.67-6.17-1.35-12.41-2.74-18.69-3.11-4.77-.28-9.62.91-14.43,1.45-.07-6.35-2.53-14.17.28-18.77,6.86-11.25,16-21.16,24.71-31.18.89-1.03,7.01.14,7.4,1.36,4.66,14.43,10.56,28.84,12.29,43.71,1.3,11.2-2.88,23.06-4.76,34.6-1.08,6.61-2.27,13.21-3.82,19.71-.44,1.86-2.34,3.37-3.57,5.04-1.7-2.6-4.83-5.21-4.8-7.79.06-6,2.12-11.96,2.43-17.99.17-3.34-1.37-6.85-2.55-10.13-.28-.79-3.09-1.57-3.19-1.41-2.57,4.16-6.18,8.22-7.03,12.77-1.2,6.45-.04,13.3-.56,19.92-.14,1.73-2.8,3.26-4.3,4.89-1.35-1.6-4.05-3.41-3.84-4.77,1.71-11.16,7.6-23.12,5.18-33.13-3.42-14.12,6.22-6.44,6.97-7.07Z" style="fill:#fff;"/><path d="m140.03,128.02c0-6.66-.27-13.34.19-19.96.12-1.69,2.52-3.21,3.88-4.82,1.5,1.46,3.77,2.67,4.34,4.43,1.17,3.59,1.44,7.48,2.08,11.25,3.02-2.66,5.98-5.4,9.1-7.93.79-.64,2.69-1.24,3.07-.85,1.74,1.74,4.61,5.39,4.41,5.59-4.33,4.17-8.95,8.05-13.69,11.77-1.26.99-3.1,1.23-4.67,1.82,1.3.82,2.82,1.41,3.85,2.49,2.85,2.99,4.89,7.55,8.31,9.01,9.47,4.05,11.15-4.58,13.56-10.33,2.84-6.77,4.5-14.03,6.85-21.02.37-1.09,1.67-1.87,2.55-2.8.89,1.31,2.63,2.7,2.52,3.91-.66,7.23-2.39,14.41-2.49,21.63-.08,5.91,1.62,11.85,2.51,17.77,1.13,7.47,2.81,14.91,3.23,22.42.78,13.94-9.3,21-21.98,14.64-10.04-5.04-19.13-12.05-28.29-18.67-1.5-1.08-1.22-4.64-1.76-7.06,2.49.13,5.02.57,7.48.33,6.67-.67,13.33-1.59,19.94-2.71.18-.03-.01-5.09-.4-5.14-3.13-.43-6.37-.41-9.55-.14-1.44.12-3.47,2-4.09,1.54-3.84-2.85-9.2-5.52-10.52-9.43-1.8-5.35-.45-11.76-.42-17.72Z" style="fill:#fff;"/><path d="m28.03,510.86c2.47-2.49,6.46-5.98,9.78-10.02,2.77-3.38,4.76-7.4,7.1-11.14-2.21-.76-4.72-1.09-6.54-2.39-2.23-1.6-4.25-3.8-5.61-6.16-.58-1,.86-4.49,1.2-4.46,2.47.18,4.87,1.25,7.35,1.51,4.13.44,8.39,0,12.43.8,5.13,1.02,12.5,1.49,14.44,4.81,1.98,3.39-1.19,9.99-2.54,15.08-1.57,5.9-4.2,11.56-5.33,17.52-2.56,13.53-4.24,27.23-6.92,40.73-.47,2.36-3.98,5.6-6.23,5.72-2.55.14-7.04-2.29-7.63-4.44-3.98-14.45-7.16-29.12-11.49-47.56Z" style="fill:#fff;"/><path d="m81.09,457.03c-2.25,5.32-3.09,9.74-5.67,12.55-1.69,1.84-5.98,1.91-8.98,1.6-.97-.1-1.83-3.88-2.23-6.07-.38-2.03.34-4.3-.19-6.26-.84-3.12-2.31-6.08-3.51-9.1-2.22,3.35-6.69,7-6.27,9.99,1.99,14.43-7.86,13.65-15.7,11.42-3.98-1.13-6.22-8.45-9.19-13.01-1.18-1.81-2.19-3.72-3.27-5.58-1.32,1.53-3.06,2.86-3.85,4.63-1.12,2.48-1.53,5.28-2.24,7.95-.8-.23-2.15-.26-2.32-.72-1.42-3.85-4.68-8.63-3.48-11.5,2.8-6.71,7.68-12.59,11.9-18.68,3.23-4.66,6.33-9.54,10.35-13.45,1.15-1.12,5.67.17,7.99,1.49,9.34,5.34,19.23,10.18,27.29,17.1,4.71,4.04,6.36,11.65,9.39,17.65Z" style="fill:#fff;"/><path d="m797.69,514.7c0-6.83-.18-13.67.07-20.5.14-3.87,1-7.71,1.54-11.56,5.28,1.31,10.53,2.72,15.85,3.86,1.71.37,3.58-.04,5.38,0,4.62.1,10.55-1.4,13.47.9,2.47,1.95,2.22,8.38,1.82,12.7-.96,10.46-2.59,20.86-4.21,31.24-.35,2.25-1.8,4.32-2.74,6.48-1.94-2.17-4.22-4.15-5.7-6.6-.78-1.29.06-3.46-.22-5.17-.74-4.39-1.69-8.74-2.56-13.11-3.61,5.08-7.84,9.85-10.63,15.35-2.28,4.48-2.41,10.01-4.35,14.72-.77,1.86-3.85,2.78-5.88,4.12-.61-2.05-1.69-4.09-1.74-6.15-.2-8.76-.08-17.52-.09-26.28Z" style="fill:#fff;"/><path d="m823.06,478.08c-.44-.15-3.25-1.08-6.07-2.01,1.4-3.06,3.01-6.06,4.14-9.22.78-2.19.9-4.61,1.32-6.92-2.42.4-5.26.14-7.18,1.34-4.63,2.88-8.84,6.43-13.22,9.72.84-6.28,1.54-12.59,2.6-18.84.34-2.01,1.74-3.81,2.48-5.78,1.46-3.85,2.8-7.75,4.19-11.62,4.7,3.49,9.91,6.48,13.97,10.59,4.81,4.87,9.82,10.17,12.64,16.25,5.8,12.56,2.45,16.51-14.87,16.49Z" style="fill:#fff;"/><path d="m2053.1,532.43c-.92,7.11-1.53,14.29-2.95,21.3-.45,2.25-3.05,4.07-4.67,6.08-1.67-3.41-4.14-6.66-4.86-10.26-2.53-12.67-5.46-25.41-6.28-38.24-.58-9.01,1.76-18.28,3.64-27.26.19-.91,6.39-.03,9.52-.94,12.83-3.76.96-9.75,1.13-14.69.1-2.74-.14-5.49-.04-8.23.05-1.37,1.19-3.43.65-3.96-1.51-1.46-3.55-2.88-5.54-3.15-1.78-.25-3.77,1.05-5.67,1.67-.36-3.75-.88-7.49-1.03-11.24-.13-3.31-.93-7.25.51-9.83,2.41-4.3,5.74-9.11,9.91-11.02,2.37-1.08,10.2,3.02,10.3,5.04.26,5.21-2.4,10.57-3.95,15.85-.4,1.37-1.29,2.66-1.42,4.03-.09.92.77,1.92,1.2,2.89,1.09-.57,2.12-1.33,3.28-1.65,1.9-.53,3.96-1.22,5.8-.93.89.14,2.25,2.49,2.06,3.61-3.09,17.69-6.39,35.34-9.65,53.01-2.51-.73-5-1.55-7.54-2.16-2.37-.57-4.79-.92-7.19-1.37.41,3.35.45,6.83,1.49,9.97.26.8,3.77.3,5.64.88,1.68.53,4.43,1.63,4.51,2.64.43,5.93.21,11.9.21,17.86.31.03.62.07.94.1Z" style="fill:#fff;"/><path d="m3479.45,561.33c-3.05-8.83-8.4-20.93-11.24-33.59-2.18-9.7-3.65-21.02-.42-29.76,1.28-3.47,16.11-1.94,24.78-2.69-.41,5.2-.91,10.39-1.21,15.6-.21,3.67-.03,7.36-.23,11.03-1.02,18.73-2.06,37.47-3.28,56.19-.09,1.37-1.6,2.65-2.45,3.97-1.98-3.13-4.41-6.08-5.79-9.46-.86-2.1-.16-4.84-.16-11.29Z" style="fill:#fff;"/><path d="m3485.16,475.23c-4.27-3.31-8.57-6.59-12.8-9.95-.88-.7-2.32-2.25-2.18-2.44,3.79-5.17,6.81-12.07,11.98-14.67,4-2.01,11.14.56,16.02,2.89,1.58.75,1.12,7.36.28,10.98-.53,2.29-4.29,3.72-5.18,6.08-1.22,3.22-1.1,6.95-1.56,10.46,2.33-1.42,4.68-2.81,7-4.25,2.29-1.41,4.55-2.86,6.82-4.3-.55,2.07-.58,4.49-1.73,6.14-3.31,4.75-6.66,9.65-10.87,13.54-1.63,1.51-7.34,1.63-8.19.37-2.03-3.03-2.27-7.25-3.24-10.98,1.21-1.29,2.43-2.57,3.64-3.86Z" style="fill:#fff;"/><path d="m3464.49,486.93c-2.9-4.6-5.51-7.97-7.12-11.76-.52-1.22,1.6-3.57,2.51-5.4,4.02,3.94,8.04,7.88,12.06,11.81-1.74,1.25-3.48,2.49-7.45,5.34Z" style="fill:#fff;"/><path d="m1932.07,87.07c0,18.02.03,36.04,0,54.06-.03,14.27,4.75,26.58,11.12,39.51,4.49,9.12,1.13,22.13.97,33.4,0,.64-2.91,1.85-4.32,1.67-1.3-.17-2.27-2.14-3.64-2.8-4.36-2.08-9.47-6.32-13.15-5.36-8.24,2.15-16.16,7.01-15.38-7.41.62-11.33,1.86-22.65,3.62-33.85.23-1.46,5.3-2.01,7.98-3.29,1.63-.78,2.98-2.14,4.46-3.24-1.51-1.26-2.85-2.88-4.58-3.69-2.56-1.21-5.38-1.84-8.09-2.72,2.81-4.14,5.52-8.35,8.51-12.35.65-.87,2.34-.95,3.56-1.4-.97-1.69-1.54-4.36-2.96-4.93-14.28-5.75-2.96-13.95-2.12-21.04.25-2.14,1.74-4.1,2.18-6.24,2.31-11.17,4.34-22.39,6.88-33.5.24-1.06,4.15-2.55,4.96-1.96,1.58,1.16,2.71,3.58,3.04,5.63.49,3.07.13,6.28.13,9.43-1.06.03-2.11.05-3.17.08Z" style="fill:#fff;"/><path d="m1914.15,233.99c-1.06-3.75-4.11-8.67-2.74-10.97,2.34-3.92,7.28-6.5,11.6-8.77.57-.3,5.94,5.15,5.43,6.81-1.06,3.42-4.59,6.08-7.1,9.06-2.39,1.29-4.79,2.58-7.18,3.87Z" style="fill:#fff;"/><path d="m1620.75,123.88c1.49,7.81,3.61,15.56,4.33,23.43,1.53,16.81,2.67,33.67,3.22,50.53.17,5.22-1.91,10.58-3.41,15.74-.31,1.07-2.76,2.28-4.04,2.11-1.47-.2-2.82-1.78-4.08-2.93-.87-.79-1.47-1.87-2.2-2.82-.6,1.05-1.07,2.22-1.84,3.13-1.78,2.08-3.96,5.83-5.52,5.61-2.32-.32-4.33-3.41-6.3-5.48-.5-.53-.35-2.4-.55-2.41-13.77-.56-7.38-9.15-5.65-15.08,1.98-6.76,5.12-13.19,7.76-19.76.42-1.04,1.56-2.49,1.22-3.04-7.02-11.41.65-11.94,9-13.52,1.9-.36,3.37-6.48,3.73-10.08.19-1.84-2.43-5.61-3.93-5.7-11.8-.64-9.34-8.19-8.94-15.78.28-5.37-2.25-10.83-2.42-16.28-.4-13.14-.22-26.31-.06-39.46.01-1.16,1.59-2.3,2.45-3.45,1.91,1.56,4.84,2.76,5.55,4.75,5.85,16.24,11.28,32.62,16.84,48.97-1.72.51-3.43,1.01-5.15,1.52Z" style="fill:#fff;"/><path d="m1710.94,220.73c-2.81-2.01-5.02-2.77-5.24-3.89-.78-4.14-2.25-8.9-.94-12.51,1.8-4.96,9.08-8.7-2.67-11.67-2.34-.59-1.99-14.94-1.46-22.85.5-7.46,2.1-15.53,13.1-13.82.23-2.71.89-5.51.4-8.08-.14-.75-3.56-1.09-5.51-1.23-2.1-.15-4.24.14-6.36.24,2.17-3,4.12-6.21,6.6-8.93,1.51-1.66,3.85-2.56,5.82-3.8-1.97-1.19-4.14-2.14-5.84-3.63-1.46-1.28-3.37-3.14-3.4-4.78-.27-15.42-.44-30.86.08-46.27.09-2.61,3.58-5.11,5.5-7.66.97,2.31,2.31,4.53,2.84,6.94,3.1,13.92,7.03,27.76,8.61,41.86,1.08,9.64-2.12,19.71-1.62,29.49.28,5.42,3.8,10.9,6.63,15.92,6.22,11.02,2.49,22.83-8.87,28.13-1,.47-.46,4.7-.25,7.15.19,2.22,1.98,4.93,1.19,6.48-2.21,4.36-5.39,8.24-8.6,12.91Z" style="fill:#fff;"/><path d="m2592.95,95.06c0,18.9.21,37.81-.26,56.7-.06,2.41-3.66,4.74-5.62,7.1-.91-2.34-1.78-4.7-2.76-7.01-1.63-3.85-3.33-7.67-5-11.5-1.78,3.59-3.28,7.35-5.42,10.71-1.86,2.92-4.36,5.47-6.71,8.05-1.8,1.97-4.12,3.54-5.61,5.71-.59.86.35,4.08.75,4.11,3.07.23,6.17-.06,9.26-.19,7.93-.31,15.87-.62,23.8-.94-1.88,6.91-2.61,14.45-5.95,20.58-3.74,6.86-9.31,12.99-15.02,18.45-8.8,8.41-11.22-.61-15.38-6.09-3.72-4.92-8.71-8.88-13.04-13.36-1.09-1.12-2.86-3.1-2.51-3.82,1.32-2.74,3.59-5,5.09-7.67,1.6-2.86,3.14-5.87,3.96-9.01,2.76-10.48,5.01-21.09,7.85-31.55,1.15-4.22,3.09-8.27,5.06-12.2,6.02-12,12.06-24,18.5-35.78,1.83-3.34,5.05-5.93,7.64-8.86,2.14,5.25,4.28,10.5,6.43,15.75-1.68.27-3.37.54-5.05.81Z" style="fill:#fff;"/><path d="m935.87,105.63c1.41-9.22,2.7-18.46,4.35-27.64.22-1.23,2.68-3.27,3.25-3.01,2.82,1.25,6.98,2.62,7.72,4.91,5.89,18.1,11.08,36.43,16.59,54.66.63,2.07,2.72,4.01,2.62,5.94-.26,5.1-1.34,10.15-2.1,15.22-6.4-1.83-15.61-1.63-18.68-5.87-10.82-14.93-12.79-25.51-13.74-44.21Z" style="fill:#fff;"/><path d="m983.55,177.17c-6.86,6.64-13.71,13.29-20.6,19.9-1.07,1.03-2.53,1.72-3.42,2.86-9.01,11.54-12.16,1.07-16.4-4.43-4.33-5.62-10.44-11.02-11.83-17.38-1.08-4.94,2.59-12.55,6.62-16.42,2.83-2.72,9.83-1.65,14.91-1.35,5.57.34,11.22,1.24,16.55,2.84,4.52,1.35,8.63,4.05,12.93,6.15.42,2.61.83,5.21,1.25,7.82Z" style="fill:#fff;"/><path d="m1512.22,437.56c-1.72,14.66-.96,25.33-4.47,34.33-6.52,16.72-4.61,33.77-6.01,50.76-.73,8.84-4.17,17.47-6.67,26.12-.14.48-2.86.22-4.38.3-.28-9.95-.34-19.92-.95-29.85-.22-3.68-2.31-7.25-2.53-10.93-.42-7.13-.41-14.31.09-21.43.12-1.68,2.77-3.38,4.54-4.68,1.28-.94,3.03-1.24,4.58-1.83-1.39-1.77-2.68-3.63-4.19-5.29-3.72-4.1-9.2-7.51-10.94-12.3-2.6-7.13-2.71-15.2-3.58-22.91-.16-1.44,1.08-3.03,1.67-4.55,1.36.77,2.64,1.74,4.08,2.27,3.13,1.16,6.35,2.1,9.53,3.13-.69-2.66-1.53-5.3-1.98-8-.19-1.14.21-3.35.73-3.48,4.25-1.06,9.96-3.8,12.61-2.06,4.32,2.84,6.67,8.68,7.87,10.41Z" style="fill:#fff;"/><path d="m1721.51,502.97c-2.59,17.04-5,34.12-8,51.09-.39,2.24-3.76,3.95-5.75,5.91-.84-2.05-2.4-4.1-2.41-6.16-.18-21.88-.46-43.78.29-65.64.11-3.18,5.45-6.18,8.37-9.26,2.08,2.88,5.3,5.51,5.96,8.68,1.02,4.87.27,10.1.27,15.18.43.07.85.14,1.28.2Z" style="fill:#fff;"/><path d="m1696.24,458.57c7.01-4.66,9.71-6.24,12.14-8.16,1.3-1.03,2.81-2.53,3.05-4.02,1.32-7.94,2.03-15.98,3.56-23.87.28-1.43,3.33-2.32,5.11-3.47,2.45,6,5.96,11.82,7.05,18.05,1.07,6.13,1.22,13.3-1.04,18.89-2.4,5.95-7.25,12.36-12.75,14.96-2.49,1.18-9.12-6.35-17.13-12.39Z" style="fill:#fff;"/><path d="m1830.88,115.61c0,9.29.07,18.58-.06,27.87-.02,1.82-.16,4.46-1.29,5.31-10.48,7.81,0,8.22,3.71,11.18,2.51,2,6.4,4.1,6.79,6.6.95,6.16.45,12.6-.14,18.86-.05.57-4.89.92-7.51.95-1.45.02-2.91-.84-4.36-1.3.09,2.06.46,4.16.2,6.18-.36,2.8-.75,7.67-1.9,7.91-4.04.83-8.42.06-12.67-.1,1.4-2.42,2.72-4.89,4.23-7.24,1.29-2.01,2.81-3.88,4.23-5.82-2.32-.54-5.83-.33-6.73-1.76-2.43-3.86-4.96-8.39-5.09-12.72-.09-3.03,4.65-5.96,5.44-9.35.58-2.51-2.43-5.65-2.61-8.59-.46-7.31-.64-14.69-.15-21.98.45-6.68,1.64-13.36,3-19.93,1.97-9.54,4.26-19.02,6.81-28.43.28-1.05,3.4-2.29,4.65-1.86,1.46.51,3.23,2.73,3.27,4.25.29,9.98.15,19.98.19,29.97Z" style="fill:#fff;"/><path d="m2599.26,518.17c0,8.41.12,16.83-.12,25.24-.04,1.32-1.67,2.59-2.56,3.88-.9-1.28-2.13-2.44-2.66-3.87-5.04-13.63-10.35-27.19-14.71-41.04-1.5-4.75-.54-10.28-.7-15.45,1.52.06,3.2-.29,4.53.25,3.06,1.22,7.06,4.92,8.73,4.02,12.08-6.52,6.96,4.1,7.36,7.54.73,6.4.21,12.95.21,19.43-.03,0-.05,0-.08,0Z" style="fill:#fff;"/><path d="m2603.34,473.64c-1.06,1.98-2.81,7.2-3.94,7.06-5.99-.69-11.83-2.73-17.72-4.31,1.47-3.27,3.17-6.45,4.37-9.82,1.48-4.19,2.37-8.58,3.82-12.78,6.02-17.45,5.56,3.84,9.08,1.54,1.34,5.59,2.68,11.18,4.39,18.3Z" style="fill:#fff;"/><path d="m1597.84,527.86c-1.29-14.25-2.34-25.27-3.26-36.3-1.12-13.33-2.22-26.66-3.07-40-.14-2.2,1.04-4.49,1.6-6.74,1.95,1.1,3.9,2.2,5.84,3.31,1.34.76,2.67,1.53,4.01,2.3.36-1.39.66-2.79,1.09-4.16.85-2.74,1.56-5.56,2.88-8.06.21-.39,4.6.37,4.86,1.25.99,3.33,2.16,7.23,1.3,10.38-2.74,10.04-8.27,19.69-9.09,29.79-.78,9.53,4.62,19.48,4.39,29.17-.22,9.51-4.11,18.93-6.38,28.39-1.39-.86-3.81-1.55-3.99-2.61-.53-3.24-.19-6.62-.19-6.71Z" style="fill:#fff;"/><path d="m1925.16,501.95c1.52-8.57,4.77-17.23,4.09-25.58-.84-10.31-5.89-20.24-7.28-30.58-.86-6.34,1.73-13.14,2.77-19.73,2.84.84,5.85,1.36,8.41,2.71.74.39.14,3.17.31,4.85.25,2.45.38,6.93,1.02,7.01,12.56,1.63,6.48,9.13,5.18,15.27-1.67,7.88-4.07,15.77-4.38,23.73-.65,16.61-.05,33.26-.19,49.9-.01,1.71-1.58,3.4-2.42,5.1-.97-1.74-2.47-3.37-2.82-5.23-1.71-8.98-3.11-18.01-4.69-27.45Z" style="fill:#fff;"/><path d="m976.27,495.35c-5.27,14.93-10.27,29.97-16.08,44.69-.85,2.14-5.55,2.76-8.47,4.08-.71-4.93-2.21-9.89-1.98-14.78.49-10.5,2.87-20.98,2.6-31.43-.25-9.63,2.4-11.47,12.2-13.57,13.21-2.83,8.81,4.66,11.73,11.01Z" style="fill:#fff;"/><path d="m975.71,472.63c-3.65,1.82-8.6,6.08-10.69,4.97-4.86-2.58-9.7-7.17-11.82-12.11-1.12-2.6,3.5-7.65,5.53-11.6,5.83,3.73,11.67,7.45,17.5,11.18-.18,2.52-.35,5.04-.53,7.57Z" style="fill:#fff;"/><path d="m1840.81,496.3c-1.32,13.93-2.44,26.33-3.78,38.7-.11,1.01-1.66,1.86-2.54,2.79-.9-1.09-2.36-2.06-2.6-3.27-2.19-11.1-4.8-22.18-5.91-33.41-.47-4.75,2.11-9.91,3.87-14.67.3-.81,4.6-1.38,5.07-.7,2.49,3.61,4.35,7.65,5.89,10.55Z" style="fill:#fff;"/><path d="m1827.03,462.53c1.65-4.86,2.8-8.24,3.95-11.63.98.78,2.59,1.4,2.84,2.37,1.79,6.99,3.3,14.06,4.9,21.1-1.87-.03-4.81.66-5.41-.23-2.52-3.7-4.34-7.89-6.27-11.62Z" style="fill:#fff;"/><path d="m2256.6,141.55c2.45-4.51,5.15-8.92,7.28-13.58,1.58-3.47,2.24-7.34,3.72-10.87.42-1.01,2.24-1.88,3.47-1.96,1.02-.07,2.99,1.09,3.02,1.78.14,2.66.16,5.52-.69,8-1.39,4.04-3.25,7.97-5.38,11.68-1.59,2.77-3.92,5.13-5.92,7.67-.99,1.26-3.05,3.37-2.84,3.63,5.62,6.82,2.91,8.93-4.66,9.22-3.06.12-6.07,1.51-9.1,2.32-1.06-5.12-3.39-10.44-2.63-15.28.37-2.33,6.55-3.75,10.1-5.59,1.21,1,2.42,1.99,3.62,2.99Z"/><path d="m2270.03,233.53c-4.66,7.9-8.39,14.54-12.56,20.91-.5.76-4.63.45-4.81-.1-.81-2.5-2-5.99-.88-7.8,3.77-6.13,8.46-11.69,12.8-17.47,1.6,1.31,3.2,2.63,5.44,4.47Z"/><path d="m3138.64,210.52c-7.92,6.44-10.76,9.51-11.37,9.11-2.42-1.55-5.34-4-5.73-6.49-.29-1.89,2.77-5.92,4.68-6.16,3.04-.37,6.36,1.64,12.41,3.53Z"/><path d="m533.73,192c-5.74,1.03-10.56,2.29-15.4,2.38-.88.02-3.38-6-2.52-7.01,3.06-3.61,7.11-6.5,11.18-9.03.62-.39,3.58,2.39,5.01,4.09,1.1,1.3,1.23,3.4,2.28,4.76.94,1.21,2.55,1.9,3.87,2.82-1.72.77-3.44,1.54-4.42,1.98Z"/><path d="m316.94,418.26c-2.13-3-3.99-5.02-3.73-5.35,2.13-2.66,4.37-5.48,7.21-7.22,1.18-.72,3.91,1.07,5.94,1.72-2.76,3.18-5.52,6.36-9.42,10.85Z"/><path d="m2837.46,153.95c6.65,2.69,11.09,4.49,15.53,6.29-.9,1.57-1.98,4.58-2.66,4.49-6.66-.87-13.24-2.25-19.85-3.49,2.28-2.38,4.56-4.76,6.98-7.29Z"/><path d="m327.21,177.11c-5.1,3.91-7.79,7.55-10.53,7.58-2.22.03-6.64-4.72-6.26-6.57.71-3.46,4.19-6.35,6.52-9.47,2.65,2.18,5.3,4.36,10.27,8.46Z"/></svg>